<?xml version="1.0" encoding="utf-8"?>
<!-- Generator: Adobe Illustrator 19.2.0, SVG Export Plug-In . SVG Version: 6.00 Build 0)  -->
<svg version="1.1" id="Layer_1" xmlns="http://www.w3.org/2000/svg" xmlns:xlink="http://www.w3.org/1999/xlink" x="0px" y="0px"
	 viewBox="0 0 960 360" style="enable-background:new 0 0 960 360;" xml:space="preserve">
<style type="text/css">
	.st0{clip-path:url(#SVGID_2_);fill:#FFFFFF;}
	.st1{clip-path:url(#SVGID_2_);fill:none;stroke:#FFFFFF;stroke-width:2;stroke-linejoin:round;stroke-miterlimit:10;}
	.st2{clip-path:url(#SVGID_2_);fill-opacity:0;}
	.st3{clip-path:url(#SVGID_2_);}
	.st4{clip-path:url(#SVGID_2_);fill:none;stroke:#666666;stroke-width:2;stroke-linejoin:round;stroke-miterlimit:10;}
	.st5{clip-path:url(#SVGID_2_);fill:#FF0000;}
	.st6{clip-path:url(#SVGID_2_);fill:none;stroke:#000000;stroke-width:2;stroke-linejoin:round;stroke-miterlimit:10;}
	.st7{clip-path:url(#SVGID_2_);fill:#4A86E8;}
</style>
<g>
	<defs>
		<rect id="SVGID_1_" y="-190" width="960" height="720"/>
	</defs>
	<clipPath id="SVGID_2_">
		<use xlink:href="#SVGID_1_"  style="overflow:visible;"/>
	</clipPath>
	<path class="st0" d="M282.1,104.5h645.5v185.4H282.1V104.5z"/>
	<path class="st1" d="M282.1,104.5h645.5v185.4H282.1V104.5z"/>
	<path class="st2" d="M274.9,88.5h645.5v39.1H274.9L274.9,88.5z"/>
	<path class="st3" d="M284.9,112.1c0-2,0.2-3.7,0.6-4.9c0.4-1.2,1-2.2,1.9-2.9c0.8-0.7,1.9-1,3.1-1c0.9,0,1.7,0.2,2.4,0.6
		c0.7,0.4,1.3,0.9,1.7,1.6c0.5,0.7,0.8,1.6,1.1,2.6c0.3,1,0.4,2.4,0.4,4.1c0,2-0.2,3.6-0.6,4.9c-0.4,1.2-1,2.2-1.9,2.9
		c-0.8,0.7-1.9,1-3.1,1c-1.7,0-3-0.6-3.9-1.8C285.4,117.6,284.9,115.3,284.9,112.1z M287,112.1c0,2.8,0.3,4.7,1,5.6s1.5,1.4,2.4,1.4
		s1.8-0.5,2.4-1.4c0.7-0.9,1-2.8,1-5.6c0-2.8-0.3-4.7-1-5.6c-0.7-0.9-1.5-1.4-2.5-1.4c-1,0-1.7,0.4-2.3,1.2
		C287.4,107.3,287,109.2,287,112.1z M298.6,107.5c0-1.2,0.3-2.3,0.9-3.1c0.6-0.9,1.5-1.3,2.7-1.3c1.1,0,2,0.4,2.7,1.2
		c0.7,0.8,1.1,1.9,1.1,3.4c0,1.4-0.4,2.6-1.1,3.4c-0.7,0.8-1.6,1.2-2.6,1.2c-1,0-1.9-0.4-2.6-1.2C298.9,110.2,298.6,109,298.6,107.5
		z M302.3,104.5c-0.5,0-1,0.2-1.3,0.7c-0.3,0.4-0.5,1.3-0.5,2.5c0,1.1,0.2,1.9,0.5,2.3c0.4,0.4,0.8,0.7,1.3,0.7c0.5,0,1-0.2,1.3-0.7
		c0.4-0.5,0.5-1.3,0.5-2.5c0-1.1-0.2-1.9-0.5-2.3C303.2,104.7,302.8,104.5,302.3,104.5z M302.3,121.2l9.4-18.1h1.7l-9.4,18.1H302.3z
		 M309.7,116.5c0-1.2,0.3-2.3,0.9-3.1c0.6-0.9,1.5-1.3,2.7-1.3c1.1,0,2,0.4,2.7,1.2c0.7,0.8,1.1,1.9,1.1,3.4c0,1.5-0.4,2.6-1.1,3.4
		c-0.7,0.8-1.6,1.2-2.6,1.2c-1,0-1.9-0.4-2.6-1.2C310.1,119.2,309.7,118.1,309.7,116.5z M313.4,113.5c-0.5,0-1,0.2-1.3,0.7
		c-0.3,0.4-0.5,1.3-0.5,2.5c0,1.1,0.2,1.9,0.5,2.3c0.4,0.4,0.8,0.7,1.3,0.7c0.5,0,1-0.2,1.3-0.7c0.4-0.5,0.5-1.3,0.5-2.5
		c0-1.1-0.2-1.9-0.5-2.3C314.4,113.8,313.9,113.5,313.4,113.5z"/>
	<path class="st3" d="M434.2,116l2.1-0.3c0.2,1.2,0.7,2,1.2,2.6c0.6,0.5,1.3,0.8,2.1,0.8c1,0,1.8-0.3,2.5-1c0.7-0.7,1-1.5,1-2.6
		c0-1-0.3-1.8-1-2.4c-0.6-0.6-1.4-1-2.4-1c-0.4,0-0.9,0.1-1.5,0.2l0.2-1.8c0.1,0,0.3,0,0.3,0c0.9,0,1.7-0.2,2.4-0.7s1.1-1.2,1.1-2.2
		c0-0.8-0.3-1.4-0.8-1.9c-0.5-0.5-1.2-0.8-2-0.8c-0.8,0-1.5,0.3-2.1,0.8c-0.5,0.5-0.9,1.3-1,2.3l-2.1-0.4c0.3-1.4,0.8-2.5,1.8-3.3
		c0.9-0.8,2.1-1.2,3.4-1.2c0.9,0,1.8,0.2,2.6,0.6c0.8,0.4,1.4,0.9,1.8,1.6c0.4,0.7,0.6,1.4,0.6,2.2c0,0.7-0.2,1.4-0.6,2
		c-0.4,0.6-1,1.1-1.8,1.4c1,0.2,1.8,0.7,2.4,1.5c0.6,0.7,0.8,1.7,0.8,2.8c0,1.5-0.5,2.8-1.6,3.8c-1.1,1-2.5,1.6-4.2,1.6
		c-1.5,0-2.8-0.4-3.8-1.3C434.9,118.6,434.4,117.4,434.2,116z M447.6,116l2.1-0.3c0.2,1.2,0.7,2,1.2,2.6c0.6,0.5,1.3,0.8,2.1,0.8
		c1,0,1.8-0.3,2.5-1c0.7-0.7,1-1.5,1-2.6c0-1-0.3-1.8-1-2.4c-0.6-0.6-1.4-1-2.4-1c-0.4,0-0.9,0.1-1.5,0.2l0.2-1.8c0.1,0,0.3,0,0.3,0
		c0.9,0,1.7-0.2,2.4-0.7s1.1-1.2,1.1-2.2c0-0.8-0.3-1.4-0.8-1.9c-0.5-0.5-1.2-0.8-2-0.8c-0.8,0-1.5,0.3-2.1,0.8
		c-0.5,0.5-0.9,1.3-1,2.3l-2.1-0.4c0.3-1.4,0.8-2.5,1.8-3.3c0.9-0.8,2.1-1.2,3.4-1.2c0.9,0,1.8,0.2,2.6,0.6c0.8,0.4,1.4,0.9,1.8,1.6
		c0.4,0.7,0.6,1.4,0.6,2.2c0,0.7-0.2,1.4-0.6,2c-0.4,0.6-1,1.1-1.8,1.4c1,0.2,1.8,0.7,2.4,1.5c0.6,0.7,0.8,1.7,0.8,2.8
		c0,1.5-0.5,2.8-1.6,3.8c-1.1,1-2.5,1.6-4.2,1.6c-1.5,0-2.8-0.4-3.8-1.3C448.3,118.6,447.7,117.4,447.6,116z M461.3,107.5
		c0-1.2,0.3-2.3,0.9-3.1c0.6-0.9,1.5-1.3,2.7-1.3c1.1,0,2,0.4,2.7,1.2c0.7,0.8,1.1,1.9,1.1,3.4c0,1.4-0.4,2.6-1.1,3.4
		c-0.7,0.8-1.6,1.2-2.6,1.2c-1,0-1.9-0.4-2.6-1.2C461.6,110.2,461.3,109,461.3,107.5z M465,104.5c-0.5,0-1,0.2-1.3,0.7
		c-0.3,0.4-0.5,1.3-0.5,2.5c0,1.1,0.2,1.9,0.5,2.3c0.4,0.4,0.8,0.7,1.3,0.7c0.5,0,1-0.2,1.3-0.7c0.4-0.5,0.5-1.3,0.5-2.5
		c0-1.1-0.2-1.9-0.5-2.3C465.9,104.7,465.5,104.5,465,104.5z M465,121.2l9.4-18.1h1.7l-9.4,18.1H465z M472.4,116.5
		c0-1.2,0.3-2.3,0.9-3.1c0.6-0.9,1.5-1.3,2.7-1.3c1.1,0,2,0.4,2.7,1.2c0.7,0.8,1.1,1.9,1.1,3.4c0,1.5-0.4,2.6-1.1,3.4
		c-0.7,0.8-1.6,1.2-2.6,1.2c-1,0-1.9-0.4-2.6-1.2C472.7,119.2,472.4,118.1,472.4,116.5z M476.1,113.5c-0.5,0-1,0.2-1.3,0.7
		c-0.3,0.4-0.5,1.3-0.5,2.5c0,1.1,0.2,1.9,0.5,2.3c0.4,0.4,0.8,0.7,1.3,0.7c0.5,0,1-0.2,1.3-0.7c0.4-0.5,0.5-1.3,0.5-2.5
		c0-1.1-0.2-1.9-0.5-2.3C477,113.8,476.6,113.5,476.1,113.5z"/>
	<path class="st3" d="M572.9,116l2.2-0.2c0.2,1.1,0.5,1.9,1.1,2.4c0.6,0.5,1.3,0.8,2.2,0.8c1,0,1.9-0.4,2.6-1.1
		c0.7-0.8,1.1-1.8,1.1-3.1c0-1.2-0.3-2.1-1-2.8c-0.7-0.7-1.6-1-2.7-1c-0.7,0-1.3,0.2-1.8,0.5c-0.5,0.3-1,0.7-1.3,1.2l-2-0.3l1.7-8.8
		h8.5v2h-6.9l-0.9,4.6c1-0.7,2.1-1.1,3.3-1.1c1.5,0,2.8,0.5,3.8,1.6c1,1,1.5,2.4,1.5,4c0,1.6-0.5,2.9-1.4,4
		c-1.1,1.4-2.6,2.1-4.5,2.1c-1.6,0-2.8-0.4-3.8-1.3S573,117.5,572.9,116z M586.2,112.1c0-2,0.2-3.7,0.6-4.9c0.4-1.2,1-2.2,1.9-2.9
		c0.8-0.7,1.9-1,3.1-1c0.9,0,1.7,0.2,2.4,0.6c0.7,0.4,1.3,0.9,1.7,1.6c0.5,0.7,0.8,1.6,1.1,2.6c0.3,1,0.4,2.4,0.4,4.1
		c0,2-0.2,3.6-0.6,4.9c-0.4,1.2-1,2.2-1.9,2.9c-0.8,0.7-1.9,1-3.1,1c-1.7,0-3-0.6-3.9-1.8C586.8,117.6,586.2,115.3,586.2,112.1z
		 M588.4,112.1c0,2.8,0.3,4.7,1,5.6s1.5,1.4,2.4,1.4s1.8-0.5,2.4-1.4c0.7-0.9,1-2.8,1-5.6c0-2.8-0.3-4.7-1-5.6
		c-0.7-0.9-1.5-1.4-2.5-1.4c-1,0-1.7,0.4-2.3,1.2C588.7,107.3,588.4,109.2,588.4,112.1z M599.9,107.5c0-1.2,0.3-2.3,0.9-3.1
		c0.6-0.9,1.5-1.3,2.7-1.3c1.1,0,2,0.4,2.7,1.2c0.7,0.8,1.1,1.9,1.1,3.4c0,1.4-0.4,2.6-1.1,3.4c-0.7,0.8-1.6,1.2-2.6,1.2
		s-1.9-0.4-2.6-1.2C600.3,110.2,599.9,109,599.9,107.5z M603.6,104.5c-0.5,0-1,0.2-1.3,0.7c-0.3,0.4-0.5,1.3-0.5,2.5
		c0,1.1,0.2,1.9,0.5,2.3c0.4,0.4,0.8,0.7,1.3,0.7c0.5,0,1-0.2,1.3-0.7c0.4-0.5,0.5-1.3,0.5-2.5c0-1.1-0.2-1.9-0.5-2.3
		C604.6,104.7,604.1,104.5,603.6,104.5z M603.6,121.2l9.4-18.1h1.7l-9.4,18.1H603.6z M611.1,116.5c0-1.2,0.3-2.3,0.9-3.1
		c0.6-0.9,1.5-1.3,2.7-1.3c1.1,0,2,0.4,2.7,1.2c0.7,0.8,1.1,1.9,1.1,3.4c0,1.5-0.4,2.6-1.1,3.4c-0.7,0.8-1.6,1.2-2.6,1.2
		c-1,0-1.9-0.4-2.6-1.2C611.4,119.2,611.1,118.1,611.1,116.5z M614.7,113.5c-0.5,0-1,0.2-1.3,0.7c-0.3,0.4-0.5,1.3-0.5,2.5
		c0,1.1,0.2,1.9,0.5,2.3c0.4,0.4,0.8,0.7,1.3,0.7c0.5,0,1-0.2,1.3-0.7c0.4-0.5,0.5-1.3,0.5-2.5c0-1.1-0.2-1.9-0.5-2.3
		C615.7,113.8,615.3,113.5,614.7,113.5z"/>
	<path class="st3" d="M846.1,120.5H844v-13.4c-0.5,0.5-1.2,1-2,1.5c-0.8,0.5-1.6,0.8-2.2,1.1v-2c1.2-0.6,2.2-1.2,3.1-2
		c0.9-0.8,1.5-1.6,1.9-2.3h1.4V120.5z M851.6,112.1c0-2,0.2-3.7,0.6-4.9c0.4-1.2,1-2.2,1.9-2.9c0.8-0.7,1.9-1,3.1-1
		c0.9,0,1.7,0.2,2.4,0.6c0.7,0.4,1.3,0.9,1.7,1.6c0.5,0.7,0.8,1.6,1.1,2.6c0.3,1,0.4,2.4,0.4,4.1c0,2-0.2,3.6-0.6,4.9
		c-0.4,1.2-1,2.2-1.9,2.9c-0.8,0.7-1.9,1-3.1,1c-1.7,0-3-0.6-3.9-1.8C852.1,117.6,851.6,115.3,851.6,112.1z M853.7,112.1
		c0,2.8,0.3,4.7,1,5.6c0.7,0.9,1.5,1.4,2.4,1.4c1,0,1.8-0.5,2.4-1.4c0.7-0.9,1-2.8,1-5.6c0-2.8-0.3-4.7-1-5.6
		c-0.7-0.9-1.5-1.4-2.5-1.4c-1,0-1.7,0.4-2.3,1.2C854.1,107.3,853.7,109.2,853.7,112.1z M864.9,112.1c0-2,0.2-3.7,0.6-4.9
		c0.4-1.2,1-2.2,1.9-2.9c0.8-0.7,1.9-1,3.1-1c0.9,0,1.7,0.2,2.4,0.6c0.7,0.4,1.3,0.9,1.7,1.6c0.5,0.7,0.8,1.6,1.1,2.6
		c0.3,1,0.4,2.4,0.4,4.1c0,2-0.2,3.6-0.6,4.9c-0.4,1.2-1,2.2-1.9,2.9c-0.8,0.7-1.9,1-3.1,1c-1.7,0-3-0.6-3.9-1.8
		C865.5,117.6,864.9,115.3,864.9,112.1z M867.1,112.1c0,2.8,0.3,4.7,1,5.6c0.7,0.9,1.5,1.4,2.4,1.4c1,0,1.8-0.5,2.4-1.4
		c0.7-0.9,1-2.8,1-5.6c0-2.8-0.3-4.7-1-5.6c-0.7-0.9-1.5-1.4-2.5-1.4c-1,0-1.7,0.4-2.3,1.2C867.4,107.3,867.1,109.2,867.1,112.1z
		 M878.6,107.5c0-1.2,0.3-2.3,0.9-3.1c0.6-0.9,1.5-1.3,2.7-1.3c1.1,0,2,0.4,2.7,1.2c0.7,0.8,1.1,1.9,1.1,3.4c0,1.4-0.4,2.6-1.1,3.4
		c-0.7,0.8-1.6,1.2-2.6,1.2c-1,0-1.9-0.4-2.6-1.2C879,110.2,878.6,109,878.6,107.5z M882.3,104.5c-0.5,0-1,0.2-1.3,0.7
		c-0.3,0.4-0.5,1.3-0.5,2.5c0,1.1,0.2,1.9,0.5,2.3c0.4,0.4,0.8,0.7,1.3,0.7c0.5,0,1-0.2,1.3-0.7c0.4-0.5,0.5-1.3,0.5-2.5
		c0-1.1-0.2-1.9-0.5-2.3C883.3,104.7,882.8,104.5,882.3,104.5z M882.3,121.2l9.4-18.1h1.7l-9.4,18.1H882.3z M889.8,116.5
		c0-1.2,0.3-2.3,0.9-3.1c0.6-0.9,1.5-1.3,2.7-1.3c1.1,0,2,0.4,2.7,1.2c0.7,0.8,1.1,1.9,1.1,3.4c0,1.5-0.4,2.6-1.1,3.4
		c-0.7,0.8-1.6,1.2-2.6,1.2c-1,0-1.9-0.4-2.6-1.2C890.1,119.2,889.8,118.1,889.8,116.5z M893.4,113.5c-0.5,0-1,0.2-1.3,0.7
		c-0.3,0.4-0.5,1.3-0.5,2.5c0,1.1,0.2,1.9,0.5,2.3c0.4,0.4,0.8,0.7,1.3,0.7c0.5,0,1-0.2,1.3-0.7c0.4-0.5,0.5-1.3,0.5-2.5
		c0-1.1-0.2-1.9-0.5-2.3C894.4,113.8,894,113.5,893.4,113.5z"/>
	<path class="st2" d="M274.9,132h645.5"/>
	<path class="st4" d="M274.9,132h645.5"/>
	<path class="st5" d="M293.3,153.8h588.2v20.1H293.3V153.8z"/>
	<path class="st6" d="M293.3,153.8h588.2v20.1H293.3V153.8z"/>
	<path class="st7" d="M282.1,164.7L282.1,164.7c0-9.2,7.1-16.7,15.9-16.7l0,0c4.2,0,8.3,1.8,11.3,4.9c3,3.1,4.7,7.4,4.7,11.8l0,0
		c0,9.2-7.1,16.7-15.9,16.7l0,0C289.2,181.4,282.1,173.9,282.1,164.7z"/>
	<path class="st6" d="M282.1,164.7L282.1,164.7c0-9.2,7.1-16.7,15.9-16.7l0,0c4.2,0,8.3,1.8,11.3,4.9c3,3.1,4.7,7.4,4.7,11.8l0,0
		c0,9.2-7.1,16.7-15.9,16.7l0,0C289.2,181.4,282.1,173.9,282.1,164.7z"/>
	<path class="st7" d="M856.5,164.7L856.5,164.7c0-9.2,7.1-16.7,15.9-16.7l0,0c4.2,0,8.3,1.8,11.3,4.9c3,3.1,4.7,7.4,4.7,11.8l0,0
		c0,9.2-7.1,16.7-15.9,16.7l0,0C863.7,181.4,856.5,173.9,856.5,164.7z"/>
	<path class="st6" d="M856.5,164.7L856.5,164.7c0-9.2,7.1-16.7,15.9-16.7l0,0c4.2,0,8.3,1.8,11.3,4.9c3,3.1,4.7,7.4,4.7,11.8l0,0
		c0,9.2-7.1,16.7-15.9,16.7l0,0C863.7,181.4,856.5,173.9,856.5,164.7z"/>
	<path class="st5" d="M293.3,201.8h588.2v20.1H293.3V201.8z"/>
	<path class="st6" d="M293.3,201.8h588.2v20.1H293.3V201.8z"/>
	<path class="st7" d="M283.2,213.4L283.2,213.4c0-9.2,7.1-16.7,15.9-16.7l0,0c4.2,0,8.3,1.8,11.3,4.9s4.7,7.4,4.7,11.8l0,0
		c0,9.2-7.1,16.7-15.9,16.7l0,0C290.3,230.1,283.2,222.6,283.2,213.4z"/>
	<path class="st6" d="M283.2,213.4L283.2,213.4c0-9.2,7.1-16.7,15.9-16.7l0,0c4.2,0,8.3,1.8,11.3,4.9s4.7,7.4,4.7,11.8l0,0
		c0,9.2-7.1,16.7-15.9,16.7l0,0C290.3,230.1,283.2,222.6,283.2,213.4z"/>
	<path class="st7" d="M857.6,213.4L857.6,213.4c0-9.2,7.1-16.7,15.9-16.7l0,0c4.2,0,8.3,1.8,11.3,4.9s4.7,7.4,4.7,11.8l0,0
		c0,9.2-7.1,16.7-15.9,16.7l0,0C864.7,230.1,857.6,222.6,857.6,213.4z"/>
	<path class="st6" d="M857.6,213.4L857.6,213.4c0-9.2,7.1-16.7,15.9-16.7l0,0c4.2,0,8.3,1.8,11.3,4.9s4.7,7.4,4.7,11.8l0,0
		c0,9.2-7.1,16.7-15.9,16.7l0,0C864.7,230.1,857.6,222.6,857.6,213.4z"/>
	<path class="st5" d="M294.4,257.2h588.2v20.1H294.4V257.2z"/>
	<path class="st6" d="M294.4,257.2h588.2v20.1H294.4V257.2z"/>
	<path class="st7" d="M284.2,268.8L284.2,268.8c0-9.2,7.1-16.7,15.9-16.7l0,0c4.2,0,8.3,1.8,11.3,4.9c3,3.1,4.7,7.4,4.7,11.8l0,0
		c0,9.2-7.1,16.7-15.9,16.7l0,0C291.4,285.4,284.2,278,284.2,268.8z"/>
	<path class="st6" d="M284.2,268.8L284.2,268.8c0-9.2,7.1-16.7,15.9-16.7l0,0c4.2,0,8.3,1.8,11.3,4.9c3,3.1,4.7,7.4,4.7,11.8l0,0
		c0,9.2-7.1,16.7-15.9,16.7l0,0C291.4,285.4,284.2,278,284.2,268.8z"/>
	<path class="st7" d="M858.7,268.8L858.7,268.8c0-9.2,7.1-16.7,15.9-16.7l0,0c4.2,0,8.3,1.8,11.3,4.9c3,3.1,4.7,7.4,4.7,11.8l0,0
		c0,9.2-7.1,16.7-15.9,16.7l0,0C865.8,285.4,858.7,278,858.7,268.8z"/>
	<path class="st6" d="M858.7,268.8L858.7,268.8c0-9.2,7.1-16.7,15.9-16.7l0,0c4.2,0,8.3,1.8,11.3,4.9c3,3.1,4.7,7.4,4.7,11.8l0,0
		c0,9.2-7.1,16.7-15.9,16.7l0,0C865.8,285.4,858.7,278,858.7,268.8z"/>
	<path class="st5" d="M295.4,311h156.3v20.1H295.4V311z"/>
	<path class="st6" d="M295.4,311h156.3v20.1H295.4V311z"/>
	<path class="st7" d="M285.3,322.6L285.3,322.6c0-9.2,7.1-16.7,15.9-16.7l0,0c4.2,0,8.3,1.8,11.3,4.9c3,3.1,4.7,7.4,4.7,11.8l0,0
		c0,9.2-7.1,16.7-15.9,16.7l0,0C292.4,339.3,285.3,331.8,285.3,322.6z"/>
	<path class="st6" d="M285.3,322.6L285.3,322.6c0-9.2,7.1-16.7,15.9-16.7l0,0c4.2,0,8.3,1.8,11.3,4.9c3,3.1,4.7,7.4,4.7,11.8l0,0
		c0,9.2-7.1,16.7-15.9,16.7l0,0C292.4,339.3,285.3,331.8,285.3,322.6z"/>
	<path class="st7" d="M442.8,311.1h430.3v20.1H442.8V311.1z"/>
	<path class="st6" d="M442.8,311.1h430.3v20.1H442.8V311.1z"/>
	<path class="st7" d="M859.7,319.7L859.7,319.7c0-9.2,7.1-16.7,15.9-16.7l0,0c4.2,0,8.3,1.8,11.3,4.9c3,3.1,4.7,7.4,4.7,11.8l0,0
		c0,9.2-7.1,16.7-15.9,16.7l0,0C866.9,336.4,859.7,329,859.7,319.7z"/>
	<path class="st6" d="M859.7,319.7L859.7,319.7c0-9.2,7.1-16.7,15.9-16.7l0,0c4.2,0,8.3,1.8,11.3,4.9c3,3.1,4.7,7.4,4.7,11.8l0,0
		c0,9.2-7.1,16.7-15.9,16.7l0,0C866.9,336.4,859.7,329,859.7,319.7z"/>
	<path class="st5" d="M434.2,320.1L434.2,320.1c0-9.2,7.1-16.7,15.9-16.7l0,0c4.2,0,8.3,1.8,11.3,4.9c3,3.1,4.7,7.4,4.7,11.8l0,0
		c0,9.2-7.1,16.7-15.9,16.7l0,0C441.4,336.8,434.2,329.3,434.2,320.1z"/>
	<path class="st6" d="M434.2,320.1L434.2,320.1c0-9.2,7.1-16.7,15.9-16.7l0,0c4.2,0,8.3,1.8,11.3,4.9c3,3.1,4.7,7.4,4.7,11.8l0,0
		c0,9.2-7.1,16.7-15.9,16.7l0,0C441.4,336.8,434.2,329.3,434.2,320.1z"/>
	<path class="st5" d="M27.2,18.9h82.6V74H27.2V18.9z"/>
	<path class="st4" d="M27.2,18.9h82.6V74H27.2V18.9z"/>
	<path class="st3" d="M42.4,56.1V36.7H45l10.1,15.2V36.7h2.5v19.3H55L44.8,40.9v15.2H42.4z M61.6,56.1V36.7h7.3
		c1.3,0,2.3,0.1,2.9,0.2c0.9,0.2,1.7,0.5,2.4,0.9c0.6,0.4,1.2,1.1,1.5,1.9c0.4,0.8,0.6,1.7,0.6,2.6c0,1.6-0.5,3-1.6,4.2
		c-1,1.1-2.9,1.7-5.7,1.7h-5v7.9H61.6z M64.2,45.9h5c1.6,0,2.8-0.3,3.5-0.9c0.7-0.6,1-1.5,1-2.6c0-0.8-0.2-1.5-0.6-2.1
		c-0.4-0.6-0.9-1-1.6-1.1c-0.4-0.1-1.2-0.2-2.4-0.2h-4.9V45.9z M93.2,49.3l2.6,0.7c-0.5,2.1-1.5,3.7-2.9,4.8
		c-1.4,1.1-3.1,1.7-5.1,1.7c-2.1,0-3.8-0.4-5.1-1.3c-1.3-0.9-2.3-2.1-3-3.7c-0.7-1.6-1-3.3-1-5.2c0-2,0.4-3.8,1.2-5.3
		c0.8-1.5,1.9-2.6,3.3-3.4c1.4-0.8,3-1.2,4.7-1.2c1.9,0,3.6,0.5,4.9,1.5c1.3,1,2.2,2.4,2.8,4.1l-2.5,0.6c-0.4-1.4-1.1-2.4-2-3.1
		c-0.8-0.6-1.9-1-3.2-1c-1.5,0-2.7,0.4-3.7,1.1c-1,0.7-1.7,1.7-2.1,2.9c-0.4,1.2-0.6,2.4-0.6,3.7c0,1.6,0.2,3.1,0.7,4.3
		c0.5,1.2,1.2,2.1,2.2,2.8c1,0.6,2.1,0.9,3.3,0.9c1.4,0,2.6-0.4,3.6-1.2C92.2,52.1,92.9,50.9,93.2,49.3z"/>
	<path class="st7" d="M152.7,18.9h82.6V74h-82.6V18.9z"/>
	<path class="st4" d="M152.7,18.9h82.6V74h-82.6V18.9z"/>
	<path class="st3" d="M187.1,56.1V36.7h7.3c1.3,0,2.3,0.1,2.9,0.2c0.9,0.2,1.7,0.5,2.4,0.9c0.6,0.4,1.2,1.1,1.5,1.9
		c0.4,0.8,0.6,1.7,0.6,2.6c0,1.6-0.5,3-1.6,4.2c-1,1.1-2.9,1.7-5.7,1.7h-5v7.9H187.1z M189.7,45.9h5c1.6,0,2.8-0.3,3.5-0.9
		c0.7-0.6,1-1.5,1-2.6c0-0.8-0.2-1.5-0.6-2.1c-0.4-0.6-0.9-1-1.6-1.1c-0.4-0.1-1.2-0.2-2.4-0.2h-4.9V45.9z"/>
	<path class="st2" d="M250.6,18.9h677V74h-677L250.6,18.9z"/>
	<path class="st3" d="M289.8,56.1V35.3h9.2c1.9,0,3.3,0.2,4.2,0.6c1,0.4,1.7,1,2.3,2c0.6,0.9,0.9,2,0.9,3.1c0,1.5-0.5,2.7-1.4,3.7
		c-0.9,1-2.4,1.7-4.4,1.9c0.7,0.3,1.3,0.7,1.7,1c0.8,0.7,1.6,1.6,2.3,2.8l3.6,5.7h-3.5l-2.8-4.3c-0.8-1.3-1.5-2.2-2-2.9
		c-0.5-0.7-1-1.1-1.4-1.4c-0.4-0.3-0.8-0.5-1.2-0.6c-0.3-0.1-0.8-0.1-1.5-0.1h-3.2v9.2H289.8z M292.5,44.5h5.9
		c1.3,0,2.2-0.1,2.9-0.4c0.7-0.3,1.2-0.7,1.6-1.3c0.4-0.6,0.6-1.2,0.6-1.9c0-1-0.4-1.8-1.1-2.4c-0.7-0.6-1.8-1-3.4-1h-6.6V44.5z
		 M320.9,51.3l2.6,0.3c-0.4,1.5-1.2,2.7-2.3,3.6c-1.1,0.8-2.6,1.3-4.3,1.3c-2.2,0-4-0.7-5.3-2c-1.3-1.4-1.9-3.3-1.9-5.7
		c0-2.5,0.7-4.5,2-5.9s3-2.1,5.1-2.1c2,0,3.7,0.7,4.9,2.1c1.3,1.4,1.9,3.3,1.9,5.8c0,0.1,0,0.4,0,0.7h-11.2c0.1,1.7,0.6,2.9,1.4,3.8
		c0.8,0.9,1.9,1.3,3.1,1.3c0.9,0,1.7-0.2,2.4-0.7C320,53.1,320.5,52.3,320.9,51.3z M312.5,47.1h8.4c-0.1-1.3-0.4-2.2-1-2.8
		c-0.8-1-1.9-1.5-3.2-1.5c-1.2,0-2.2,0.4-3,1.2C313,44.8,312.6,45.8,312.5,47.1z M336.5,61.9v-7.4c-0.4,0.6-1,1-1.7,1.4
		c-0.7,0.4-1.5,0.5-2.3,0.5c-1.8,0-3.3-0.7-4.6-2.1s-1.9-3.4-1.9-5.9c0-1.5,0.3-2.9,0.8-4.1c0.5-1.2,1.3-2.1,2.3-2.7
		c1-0.6,2.1-0.9,3.3-0.9c1.9,0,3.3,0.8,4.4,2.3v-2h2.3v20.8H336.5z M328.6,48.5c0,1.9,0.4,3.4,1.2,4.4s1.8,1.5,2.9,1.5
		c1.1,0,2-0.5,2.8-1.4c0.8-0.9,1.2-2.3,1.2-4.2c0-2-0.4-3.5-1.2-4.5s-1.8-1.5-2.9-1.5c-1.1,0-2,0.5-2.8,1.4
		C329,45.1,328.6,46.6,328.6,48.5z M353.1,56.1v-2.2c-1.2,1.7-2.8,2.5-4.8,2.5c-0.9,0-1.7-0.2-2.5-0.5c-0.8-0.3-1.3-0.8-1.7-1.3
		c-0.4-0.5-0.6-1.1-0.8-1.9c-0.1-0.5-0.2-1.3-0.2-2.4v-9.3h2.5v8.3c0,1.3,0.1,2.2,0.2,2.7c0.2,0.7,0.5,1.2,1,1.6
		c0.5,0.4,1.2,0.6,1.9,0.6c0.8,0,1.5-0.2,2.2-0.6c0.7-0.4,1.1-0.9,1.4-1.6c0.3-0.7,0.4-1.7,0.4-2.9v-8h2.5v15H353.1z M359.5,38.3
		v-2.9h2.5v2.9H359.5z M359.5,56.1v-15h2.5v15H359.5z M366,56.1v-15h2.3v2.3c0.6-1.1,1.1-1.8,1.6-2.1c0.5-0.3,1-0.5,1.6-0.5
		c0.9,0,1.7,0.3,2.6,0.8l-0.9,2.4c-0.6-0.4-1.2-0.6-1.9-0.6c-0.6,0-1.1,0.2-1.5,0.5c-0.4,0.3-0.8,0.8-0.9,1.4
		c-0.3,0.9-0.4,1.9-0.4,3v7.9H366z M386.1,51.3l2.6,0.3c-0.4,1.5-1.2,2.7-2.3,3.6c-1.1,0.8-2.6,1.3-4.3,1.3c-2.2,0-4-0.7-5.3-2
		c-1.3-1.4-1.9-3.3-1.9-5.7c0-2.5,0.7-4.5,2-5.9c1.3-1.4,3-2.1,5.1-2.1c2,0,3.7,0.7,4.9,2.1c1.3,1.4,1.9,3.3,1.9,5.8
		c0,0.1,0,0.4,0,0.7h-11.2c0.1,1.7,0.6,2.9,1.4,3.8c0.8,0.9,1.9,1.3,3.1,1.3c0.9,0,1.7-0.2,2.4-0.7
		C385.2,53.1,385.7,52.3,386.1,51.3z M377.7,47.1h8.4c-0.1-1.3-0.4-2.2-1-2.8c-0.8-1-1.9-1.5-3.2-1.5c-1.2,0-2.2,0.4-3,1.2
		C378.2,44.8,377.8,45.8,377.7,47.1z M401.9,56.1v-1.9c-1,1.5-2.4,2.2-4.2,2.2c-1.2,0-2.3-0.3-3.3-1c-1-0.7-1.8-1.6-2.3-2.8
		c-0.6-1.2-0.8-2.5-0.8-4.1c0-1.5,0.3-2.9,0.8-4.1c0.5-1.2,1.3-2.2,2.3-2.8c1-0.7,2.1-1,3.3-1c0.9,0,1.7,0.2,2.4,0.6
		c0.7,0.4,1.3,0.9,1.7,1.5v-7.5h2.5v20.8H401.9z M393.8,48.6c0,1.9,0.4,3.4,1.2,4.3c0.8,0.9,1.8,1.4,2.9,1.4c1.1,0,2.1-0.5,2.8-1.4
		c0.8-0.9,1.2-2.3,1.2-4.2c0-2.1-0.4-3.6-1.2-4.5c-0.8-1-1.8-1.5-2.9-1.5c-1.1,0-2.1,0.5-2.8,1.4C394.2,45.1,393.8,46.6,393.8,48.6z
		 M416.9,56.1V35.3h7.8c1.4,0,2.4,0.1,3.2,0.2c1,0.2,1.9,0.5,2.6,1c0.7,0.5,1.3,1.2,1.7,2c0.4,0.9,0.6,1.8,0.6,2.8
		c0,1.8-0.6,3.3-1.7,4.5c-1.1,1.2-3.1,1.8-6.1,1.8h-5.3v8.4H416.9z M419.6,45.2h5.4c1.8,0,3-0.3,3.8-1c0.8-0.7,1.1-1.6,1.1-2.8
		c0-0.9-0.2-1.6-0.7-2.2c-0.4-0.6-1-1-1.7-1.2c-0.5-0.1-1.3-0.2-2.6-0.2h-5.3V45.2z M446.4,51.3l2.6,0.3c-0.4,1.5-1.2,2.7-2.3,3.6
		c-1.1,0.8-2.6,1.3-4.3,1.3c-2.2,0-4-0.7-5.3-2c-1.3-1.4-1.9-3.3-1.9-5.7c0-2.5,0.7-4.5,2-5.9c1.3-1.4,3-2.1,5.1-2.1
		c2,0,3.7,0.7,4.9,2.1c1.3,1.4,1.9,3.3,1.9,5.8c0,0.1,0,0.4,0,0.7h-11.2c0.1,1.7,0.6,2.9,1.4,3.8c0.8,0.9,1.9,1.3,3.1,1.3
		c0.9,0,1.7-0.2,2.4-0.7C445.5,53.1,446,52.3,446.4,51.3z M438.1,47.1h8.4c-0.1-1.3-0.4-2.2-1-2.8c-0.8-1-1.9-1.5-3.2-1.5
		c-1.2,0-2.2,0.4-3,1.2C438.6,44.8,438.1,45.8,438.1,47.1z M452.4,56.1v-15h2.3v2.3c0.6-1.1,1.1-1.8,1.6-2.1c0.5-0.3,1-0.5,1.6-0.5
		c0.9,0,1.7,0.3,2.6,0.8l-0.9,2.4c-0.6-0.4-1.2-0.6-1.9-0.6c-0.6,0-1.1,0.2-1.5,0.5c-0.4,0.3-0.8,0.8-0.9,1.4
		c-0.3,0.9-0.4,1.9-0.4,3v7.9H452.4z M472,50.6l2.5,0.3c-0.3,1.7-1,3.1-2.1,4.1c-1.1,1-2.5,1.5-4.2,1.5c-2.1,0-3.7-0.7-5-2
		c-1.3-1.4-1.9-3.3-1.9-5.8c0-1.6,0.3-3,0.8-4.3c0.5-1.2,1.4-2.1,2.5-2.7c1.1-0.6,2.3-0.9,3.6-0.9c1.6,0,3,0.4,4,1.2
		c1,0.8,1.7,2,2,3.5l-2.5,0.4c-0.2-1-0.7-1.8-1.3-2.3c-0.6-0.5-1.3-0.8-2.2-0.8c-1.3,0-2.3,0.5-3.1,1.4c-0.8,0.9-1.2,2.4-1.2,4.4
		c0,2,0.4,3.5,1.2,4.4c0.8,0.9,1.8,1.4,3,1.4c1,0,1.8-0.3,2.5-0.9C471.4,52.8,471.8,51.9,472,50.6z M487.2,51.3l2.6,0.3
		c-0.4,1.5-1.2,2.7-2.3,3.6c-1.1,0.8-2.6,1.3-4.3,1.3c-2.2,0-4-0.7-5.3-2c-1.3-1.4-1.9-3.3-1.9-5.7c0-2.5,0.7-4.5,2-5.9
		c1.3-1.4,3-2.1,5.1-2.1c2,0,3.7,0.7,4.9,2.1c1.3,1.4,1.9,3.3,1.9,5.8c0,0.1,0,0.4,0,0.7h-11.2c0.1,1.7,0.6,2.9,1.4,3.8
		c0.8,0.9,1.9,1.3,3.1,1.3c0.9,0,1.7-0.2,2.4-0.7C486.2,53.1,486.8,52.3,487.2,51.3z M478.8,47.1h8.4c-0.1-1.3-0.4-2.2-1-2.8
		c-0.8-1-1.9-1.5-3.2-1.5c-1.2,0-2.2,0.4-3,1.2C479.3,44.8,478.9,45.8,478.8,47.1z M493.2,56.1v-15h2.3v2.1c1.1-1.6,2.7-2.5,4.8-2.5
		c0.9,0,1.7,0.2,2.5,0.5c0.8,0.3,1.3,0.8,1.7,1.3c0.4,0.5,0.7,1.2,0.8,1.9c0.1,0.5,0.1,1.3,0.1,2.5v9.3h-2.5V47c0-1-0.1-1.8-0.3-2.3
		c-0.2-0.5-0.6-0.9-1.1-1.2c-0.5-0.3-1.1-0.5-1.8-0.5c-1.1,0-2,0.3-2.8,1c-0.8,0.7-1.2,2-1.2,3.9v8.2H493.2z M515.1,53.8l0.4,2.3
		c-0.7,0.2-1.4,0.2-1.9,0.2c-0.9,0-1.6-0.1-2.2-0.4c-0.5-0.3-0.9-0.7-1.1-1.2c-0.2-0.5-0.3-1.5-0.3-3V43h-1.9v-2h1.9v-3.7l2.5-1.5
		v5.3h2.6v2h-2.6v8.8c0,0.7,0,1.2,0.1,1.4s0.2,0.4,0.4,0.5c0.2,0.1,0.5,0.2,0.9,0.2C514.2,53.9,514.6,53.9,515.1,53.8z M527.4,54.2
		c-0.9,0.8-1.8,1.4-2.7,1.7s-1.8,0.5-2.8,0.5c-1.7,0-2.9-0.4-3.8-1.2c-0.9-0.8-1.3-1.8-1.3-3.1c0-0.7,0.2-1.4,0.5-2
		c0.3-0.6,0.8-1.1,1.3-1.5c0.6-0.4,1.2-0.7,1.8-0.8c0.5-0.1,1.3-0.3,2.3-0.4c2.1-0.2,3.6-0.5,4.5-0.9c0-0.3,0-0.6,0-0.7
		c0-1-0.2-1.8-0.7-2.2c-0.6-0.6-1.6-0.9-2.9-0.9c-1.2,0-2.1,0.2-2.7,0.6c-0.6,0.4-1,1.2-1.3,2.2l-2.5-0.3c0.2-1.1,0.6-1.9,1.1-2.6
		c0.5-0.7,1.3-1.2,2.3-1.5c1-0.4,2.1-0.5,3.4-0.5c1.3,0,2.3,0.2,3.1,0.5c0.8,0.3,1.4,0.7,1.8,1.1s0.6,1,0.8,1.7
		c0.1,0.4,0.1,1.2,0.1,2.3v3.4c0,2.4,0.1,3.9,0.2,4.5c0.1,0.6,0.3,1.2,0.6,1.8H528C527.7,55.6,527.5,55,527.4,54.2z M527.2,48.6
		c-0.9,0.4-2.3,0.7-4.2,1c-1,0.1-1.8,0.3-2.2,0.5s-0.8,0.5-1,0.8c-0.2,0.4-0.3,0.8-0.3,1.2c0,0.7,0.3,1.2,0.8,1.7
		c0.5,0.4,1.3,0.7,2.3,0.7c1,0,1.8-0.2,2.6-0.6c0.8-0.4,1.3-1,1.7-1.8c0.3-0.6,0.4-1.4,0.4-2.5V48.6z M533.5,57.4l2.5,0.4
		c0.1,0.8,0.4,1.3,0.9,1.7c0.6,0.5,1.5,0.7,2.6,0.7c1.2,0,2.1-0.2,2.7-0.7c0.6-0.5,1.1-1.1,1.3-2c0.1-0.5,0.2-1.6,0.2-3.3
		c-1.1,1.3-2.5,2-4.2,2c-2.1,0-3.7-0.7-4.8-2.2c-1.1-1.5-1.7-3.3-1.7-5.4c0-1.4,0.3-2.7,0.8-4c0.5-1.2,1.3-2.2,2.3-2.8
		c1-0.7,2.2-1,3.5-1c1.8,0,3.2,0.7,4.4,2.2v-1.8h2.3v13c0,2.3-0.2,4-0.7,5c-0.5,1-1.2,1.8-2.3,2.3c-1,0.6-2.3,0.9-3.8,0.9
		c-1.8,0-3.2-0.4-4.3-1.2C534,60.2,533.4,59,533.5,57.4z M535.6,48.3c0,2,0.4,3.4,1.2,4.3c0.8,0.9,1.8,1.4,3,1.4
		c1.2,0,2.2-0.4,3-1.3c0.8-0.9,1.2-2.3,1.2-4.3c0-1.8-0.4-3.2-1.2-4.2c-0.8-0.9-1.8-1.4-3-1.4c-1.1,0-2.1,0.5-2.9,1.4
		C536,45.1,535.6,46.5,535.6,48.3z M560.6,51.3l2.6,0.3c-0.4,1.5-1.2,2.7-2.3,3.6c-1.1,0.8-2.6,1.3-4.3,1.3c-2.2,0-4-0.7-5.3-2
		c-1.3-1.4-1.9-3.3-1.9-5.7c0-2.5,0.7-4.5,2-5.9c1.3-1.4,3-2.1,5.1-2.1c2,0,3.7,0.7,4.9,2.1c1.3,1.4,1.9,3.3,1.9,5.8
		c0,0.1,0,0.4,0,0.7h-11.2c0.1,1.7,0.6,2.9,1.4,3.8c0.8,0.9,1.9,1.3,3.1,1.3c0.9,0,1.7-0.2,2.4-0.7
		C559.6,53.1,560.2,52.3,560.6,51.3z M552.2,47.1h8.4c-0.1-1.3-0.4-2.2-1-2.8c-0.8-1-1.9-1.5-3.2-1.5c-1.2,0-2.2,0.4-3,1.2
		C552.7,44.8,552.3,45.8,552.2,47.1z M573.8,48.6c0-2.8,0.8-4.9,2.3-6.2c1.3-1.1,2.9-1.7,4.7-1.7c2.1,0,3.8,0.7,5.1,2s2,3.2,2,5.6
		c0,1.9-0.3,3.5-0.9,4.6c-0.6,1.1-1.4,2-2.5,2.6c-1.1,0.6-2.3,0.9-3.6,0.9c-2.1,0-3.8-0.7-5.1-2C574.4,53.1,573.8,51.1,573.8,48.6z
		 M576.4,48.6c0,1.9,0.4,3.4,1.3,4.3s1.9,1.4,3.2,1.4c1.3,0,2.3-0.5,3.2-1.4c0.8-1,1.3-2.4,1.3-4.4c0-1.9-0.4-3.3-1.3-4.2
		c-0.8-1-1.9-1.4-3.1-1.4c-1.3,0-2.3,0.5-3.2,1.4C576.8,45.2,576.4,46.7,576.4,48.6z M591.6,56.1V43h-2.3v-2h2.3v-1.6
		c0-1,0.1-1.8,0.3-2.3c0.2-0.7,0.7-1.2,1.3-1.6c0.6-0.4,1.5-0.6,2.6-0.6c0.7,0,1.5,0.1,2.4,0.3l-0.4,2.2c-0.5-0.1-1-0.1-1.5-0.1
		c-0.8,0-1.3,0.2-1.6,0.5c-0.3,0.3-0.5,1-0.5,1.9v1.4h2.9v2h-2.9v13.1H591.6z M607.6,56.1V35.3h2.8l10.9,16.3V35.3h2.6v20.8h-2.8
		l-10.9-16.3v16.3H607.6z M627.6,48.6c0-2.8,0.8-4.9,2.3-6.2c1.3-1.1,2.9-1.7,4.7-1.7c2.1,0,3.8,0.7,5.1,2s2,3.2,2,5.6
		c0,1.9-0.3,3.5-0.9,4.6c-0.6,1.1-1.4,2-2.5,2.6c-1.1,0.6-2.3,0.9-3.6,0.9c-2.1,0-3.8-0.7-5.1-2C628.2,53.1,627.6,51.1,627.6,48.6z
		 M630.2,48.6c0,1.9,0.4,3.4,1.3,4.3s1.9,1.4,3.2,1.4c1.3,0,2.3-0.5,3.2-1.4c0.8-1,1.3-2.4,1.3-4.4c0-1.9-0.4-3.3-1.3-4.2
		c-0.8-1-1.9-1.4-3.1-1.4c-1.3,0-2.3,0.5-3.2,1.4C630.6,45.2,630.2,46.7,630.2,48.6z M650.4,53.8l0.4,2.3c-0.7,0.2-1.4,0.2-1.9,0.2
		c-0.9,0-1.6-0.1-2.2-0.4c-0.5-0.3-0.9-0.7-1.1-1.2c-0.2-0.5-0.3-1.5-0.3-3V43h-1.9v-2h1.9v-3.7l2.5-1.5v5.3h2.6v2h-2.6v8.8
		c0,0.7,0,1.2,0.1,1.4s0.2,0.4,0.4,0.5c0.2,0.1,0.5,0.2,0.9,0.2C649.5,53.9,649.9,53.9,650.4,53.8z M663.3,51.3l2.6,0.3
		c-0.4,1.5-1.2,2.7-2.3,3.6c-1.1,0.8-2.6,1.3-4.3,1.3c-2.2,0-4-0.7-5.3-2c-1.3-1.4-1.9-3.3-1.9-5.7c0-2.5,0.7-4.5,2-5.9
		c1.3-1.4,3-2.1,5.1-2.1c2,0,3.7,0.7,4.9,2.1c1.3,1.4,1.9,3.3,1.9,5.8c0,0.1,0,0.4,0,0.7h-11.2c0.1,1.7,0.6,2.9,1.4,3.8
		c0.8,0.9,1.9,1.3,3.1,1.3c0.9,0,1.7-0.2,2.4-0.7C662.3,53.1,662.9,52.3,663.3,51.3z M654.9,47.1h8.4c-0.1-1.3-0.4-2.2-1-2.8
		c-0.8-1-1.9-1.5-3.2-1.5c-1.2,0-2.2,0.4-3,1.2C655.4,44.8,655,45.8,654.9,47.1z M668.3,51.6l2.5-0.4c0.1,1,0.5,1.8,1.2,2.3
		c0.6,0.5,1.6,0.8,2.7,0.8c1.2,0,2-0.2,2.6-0.7c0.6-0.5,0.9-1,0.9-1.7c0-0.6-0.3-1-0.8-1.4c-0.4-0.2-1.2-0.5-2.6-0.9
		c-1.9-0.5-3.2-0.9-3.9-1.2c-0.7-0.3-1.3-0.8-1.6-1.4c-0.4-0.6-0.6-1.3-0.6-2c0-0.7,0.2-1.3,0.5-1.9c0.3-0.6,0.7-1,1.3-1.4
		c0.4-0.3,0.9-0.5,1.6-0.7c0.7-0.2,1.4-0.3,2.2-0.3c1.2,0,2.2,0.2,3.1,0.5c0.9,0.3,1.6,0.8,2,1.4c0.4,0.6,0.7,1.4,0.9,2.3l-2.5,0.3
		c-0.1-0.8-0.4-1.4-1-1.8c-0.5-0.4-1.3-0.7-2.3-0.7c-1.2,0-2,0.2-2.5,0.6s-0.8,0.8-0.8,1.4c0,0.3,0.1,0.6,0.3,0.9
		c0.2,0.3,0.5,0.5,1,0.7c0.3,0.1,1,0.3,2.3,0.6c1.8,0.5,3.1,0.9,3.8,1.2c0.7,0.3,1.3,0.8,1.7,1.3c0.4,0.6,0.6,1.3,0.6,2.2
		c0,0.9-0.3,1.7-0.8,2.4c-0.5,0.8-1.2,1.3-2.1,1.8c-0.9,0.4-2,0.6-3.2,0.6c-2,0-3.5-0.4-4.5-1.2C669.2,54.4,668.5,53.2,668.3,51.6z
		 M692.1,38.3v-2.9h2.5v2.9H692.1z M692.1,56.1v-15h2.5v15H692.1z M698.6,56.1v-15h2.3v2.1c1.1-1.6,2.7-2.5,4.8-2.5
		c0.9,0,1.7,0.2,2.5,0.5c0.8,0.3,1.3,0.8,1.7,1.3c0.4,0.5,0.7,1.2,0.8,1.9c0.1,0.5,0.1,1.3,0.1,2.5v9.3h-2.5V47c0-1-0.1-1.8-0.3-2.3
		c-0.2-0.5-0.6-0.9-1.1-1.2c-0.5-0.3-1.1-0.5-1.8-0.5c-1.1,0-2,0.3-2.8,1c-0.8,0.7-1.2,2-1.2,3.9v8.2H698.6z M721.1,56.1l8-20.8h3
		l8.5,20.8h-3.1l-2.4-6.3h-8.7l-2.3,6.3H721.1z M727.1,47.6h7l-2.2-5.8c-0.7-1.7-1.1-3.2-1.5-4.3c-0.3,1.3-0.6,2.7-1.1,4L727.1,47.6
		z M742.6,56.1v-15h2.3v2.3c0.6-1.1,1.1-1.8,1.6-2.1c0.5-0.3,1-0.5,1.6-0.5c0.9,0,1.7,0.3,2.6,0.8l-0.9,2.4
		c-0.6-0.4-1.2-0.6-1.9-0.6c-0.6,0-1.1,0.2-1.5,0.5c-0.4,0.3-0.8,0.8-0.9,1.4c-0.3,0.9-0.4,1.9-0.4,3v7.9H742.6z M752.4,56.1v-15
		h2.3v2.3c0.6-1.1,1.1-1.8,1.6-2.1c0.5-0.3,1-0.5,1.6-0.5c0.9,0,1.7,0.3,2.6,0.8l-0.9,2.4c-0.6-0.4-1.2-0.6-1.9-0.6
		c-0.6,0-1.1,0.2-1.5,0.5c-0.4,0.3-0.8,0.8-0.9,1.4c-0.3,0.9-0.4,1.9-0.4,3v7.9H752.4z M772,54.2c-0.9,0.8-1.8,1.4-2.7,1.7
		s-1.8,0.5-2.8,0.5c-1.7,0-2.9-0.4-3.8-1.2c-0.9-0.8-1.3-1.8-1.3-3.1c0-0.7,0.2-1.4,0.5-2c0.3-0.6,0.8-1.1,1.3-1.5
		c0.6-0.4,1.2-0.7,1.8-0.8c0.5-0.1,1.3-0.3,2.3-0.4c2.1-0.2,3.6-0.5,4.5-0.9c0-0.3,0-0.6,0-0.7c0-1-0.2-1.8-0.7-2.2
		c-0.6-0.6-1.6-0.9-2.9-0.9c-1.2,0-2.1,0.2-2.7,0.6c-0.6,0.4-1,1.2-1.3,2.2l-2.5-0.3c0.2-1.1,0.6-1.9,1.1-2.6
		c0.5-0.7,1.3-1.2,2.3-1.5c1-0.4,2.1-0.5,3.4-0.5c1.3,0,2.3,0.2,3.1,0.5c0.8,0.3,1.4,0.7,1.8,1.1s0.6,1,0.8,1.7
		c0.1,0.4,0.1,1.2,0.1,2.3v3.4c0,2.4,0.1,3.9,0.2,4.5c0.1,0.6,0.3,1.2,0.6,1.8h-2.7C772.2,55.6,772,55,772,54.2z M771.8,48.6
		c-0.9,0.4-2.3,0.7-4.2,1c-1,0.1-1.8,0.3-2.2,0.5s-0.8,0.5-1,0.8c-0.2,0.4-0.3,0.8-0.3,1.2c0,0.7,0.3,1.2,0.8,1.7
		c0.5,0.4,1.3,0.7,2.3,0.7c1,0,1.8-0.2,2.6-0.6c0.8-0.4,1.3-1,1.7-1.8c0.3-0.6,0.4-1.4,0.4-2.5V48.6z M778.5,56.1v-15h2.3v2.1
		c1.1-1.6,2.7-2.5,4.8-2.5c0.9,0,1.7,0.2,2.5,0.5c0.8,0.3,1.3,0.8,1.7,1.3c0.4,0.5,0.7,1.2,0.8,1.9c0.1,0.5,0.1,1.3,0.1,2.5v9.3
		h-2.5V47c0-1-0.1-1.8-0.3-2.3c-0.2-0.5-0.6-0.9-1.1-1.2c-0.5-0.3-1.1-0.5-1.8-0.5c-1.1,0-2,0.3-2.8,1c-0.8,0.7-1.2,2-1.2,3.9v8.2
		H778.5z M794.3,57.4l2.5,0.4c0.1,0.8,0.4,1.3,0.9,1.7c0.6,0.5,1.5,0.7,2.6,0.7c1.2,0,2.1-0.2,2.7-0.7c0.6-0.5,1.1-1.1,1.3-2
		c0.1-0.5,0.2-1.6,0.2-3.3c-1.1,1.3-2.5,2-4.2,2c-2.1,0-3.7-0.7-4.8-2.2c-1.1-1.5-1.7-3.3-1.7-5.4c0-1.4,0.3-2.7,0.8-4
		c0.5-1.2,1.3-2.2,2.3-2.8c1-0.7,2.2-1,3.5-1c1.8,0,3.2,0.7,4.4,2.2v-1.8h2.3v13c0,2.3-0.2,4-0.7,5c-0.5,1-1.2,1.8-2.3,2.3
		c-1,0.6-2.3,0.9-3.8,0.9c-1.8,0-3.2-0.4-4.3-1.2C794.8,60.2,794.3,59,794.3,57.4z M796.4,48.3c0,2,0.4,3.4,1.2,4.3
		c0.8,0.9,1.8,1.4,3,1.4c1.2,0,2.2-0.4,3-1.3c0.8-0.9,1.2-2.3,1.2-4.3c0-1.8-0.4-3.2-1.2-4.2c-0.8-0.9-1.8-1.4-3-1.4
		c-1.1,0-2.1,0.5-2.9,1.4C796.8,45.1,796.4,46.5,796.4,48.3z M821.4,51.3l2.6,0.3c-0.4,1.5-1.2,2.7-2.3,3.6
		c-1.1,0.8-2.6,1.3-4.3,1.3c-2.2,0-4-0.7-5.3-2c-1.3-1.4-1.9-3.3-1.9-5.7c0-2.5,0.7-4.5,2-5.9c1.3-1.4,3-2.1,5.1-2.1
		c2,0,3.7,0.7,4.9,2.1c1.3,1.4,1.9,3.3,1.9,5.8c0,0.1,0,0.4,0,0.7h-11.2c0.1,1.7,0.6,2.9,1.4,3.8c0.8,0.9,1.9,1.3,3.1,1.3
		c0.9,0,1.7-0.2,2.4-0.7C820.5,53.1,821,52.3,821.4,51.3z M813,47.1h8.4c-0.1-1.3-0.4-2.2-1-2.8c-0.8-1-1.9-1.5-3.2-1.5
		c-1.2,0-2.2,0.4-3,1.2C813.5,44.8,813.1,45.8,813,47.1z M827.4,56.1v-15h2.3v2.1c0.5-0.7,1.1-1.3,1.9-1.8s1.7-0.7,2.7-0.7
		c1.1,0,2,0.2,2.7,0.7c0.7,0.5,1.2,1.1,1.5,1.9c1.2-1.8,2.7-2.6,4.6-2.6c1.5,0,2.6,0.4,3.4,1.2c0.8,0.8,1.2,2.1,1.2,3.8v10.3h-2.5
		v-9.5c0-1-0.1-1.8-0.3-2.2c-0.2-0.4-0.5-0.8-0.9-1.1c-0.4-0.3-0.9-0.4-1.5-0.4c-1.1,0-1.9,0.4-2.6,1.1c-0.7,0.7-1,1.8-1,3.4v8.7
		h-2.5v-9.8c0-1.1-0.2-2-0.6-2.5c-0.4-0.6-1.1-0.9-2-0.9c-0.7,0-1.4,0.2-2,0.6c-0.6,0.4-1,0.9-1.3,1.7c-0.3,0.7-0.4,1.8-0.4,3.1v7.8
		H827.4z M862.1,51.3l2.6,0.3c-0.4,1.5-1.2,2.7-2.3,3.6c-1.1,0.8-2.6,1.3-4.3,1.3c-2.2,0-4-0.7-5.3-2c-1.3-1.4-1.9-3.3-1.9-5.7
		c0-2.5,0.7-4.5,2-5.9c1.3-1.4,3-2.1,5.1-2.1c2,0,3.7,0.7,4.9,2.1c1.3,1.4,1.9,3.3,1.9,5.8c0,0.1,0,0.4,0,0.7h-11.2
		c0.1,1.7,0.6,2.9,1.4,3.8c0.8,0.9,1.9,1.3,3.1,1.3c0.9,0,1.7-0.2,2.4-0.7C861.2,53.1,861.7,52.3,862.1,51.3z M853.8,47.1h8.4
		c-0.1-1.3-0.4-2.2-1-2.8c-0.8-1-1.9-1.5-3.2-1.5c-1.2,0-2.2,0.4-3,1.2C854.3,44.8,853.8,45.8,853.8,47.1z M868.1,56.1v-15h2.3v2.1
		c1.1-1.6,2.7-2.5,4.8-2.5c0.9,0,1.7,0.2,2.5,0.5c0.8,0.3,1.3,0.8,1.7,1.3c0.4,0.5,0.7,1.2,0.8,1.9c0.1,0.5,0.1,1.3,0.1,2.5v9.3
		h-2.5V47c0-1-0.1-1.8-0.3-2.3c-0.2-0.5-0.6-0.9-1.1-1.2c-0.5-0.3-1.1-0.5-1.8-0.5c-1.1,0-2,0.3-2.8,1c-0.8,0.7-1.2,2-1.2,3.9v8.2
		H868.1z M890,53.8l0.4,2.3c-0.7,0.2-1.4,0.2-1.9,0.2c-0.9,0-1.6-0.1-2.2-0.4c-0.5-0.3-0.9-0.7-1.1-1.2c-0.2-0.5-0.3-1.5-0.3-3V43
		h-1.9v-2h1.9v-3.7l2.5-1.5v5.3h2.6v2h-2.6v8.8c0,0.7,0,1.2,0.1,1.4s0.2,0.4,0.4,0.5c0.2,0.1,0.5,0.2,0.9,0.2
		C889.2,53.9,889.6,53.9,890,53.8z"/>
	<path class="st2" d="M0.4,85.8h961.5"/>
	<path class="st4" d="M0.4,85.8h961.5"/>
	<path class="st2" d="M250.6,1.4v386.3"/>
	<path class="st4" d="M250.6,1.4V362"/>
	<path class="st2" d="M-1.8,136.1h252.4v199.7H-1.8V136.1z"/>
	<path class="st3" d="M20.7,161.1l2.2,0.5c-0.5,1.8-1.3,3.2-2.5,4.1s-2.6,1.4-4.3,1.4c-1.8,0-3.2-0.4-4.3-1.1
		c-1.1-0.7-1.9-1.8-2.5-3.1c-0.6-1.4-0.9-2.8-0.9-4.4c0-1.7,0.3-3.2,1-4.5c0.7-1.3,1.6-2.3,2.8-2.9c1.2-0.7,2.5-1,4-1
		c1.6,0,3,0.4,4.1,1.3c1.1,0.8,1.9,2,2.4,3.5l-2.1,0.5c-0.4-1.2-0.9-2.1-1.7-2.6c-0.7-0.6-1.6-0.8-2.7-0.8c-1.3,0-2.3,0.3-3.2,0.9
		c-0.8,0.6-1.4,1.4-1.8,2.4c-0.3,1-0.5,2.1-0.5,3.2c0,1.4,0.2,2.6,0.6,3.7c0.4,1,1,1.8,1.9,2.3c0.9,0.5,1.8,0.8,2.8,0.8
		c1.2,0,2.3-0.3,3.1-1C19.8,163.6,20.4,162.5,20.7,161.1z M24.3,160.9c0-2.2,0.6-3.8,1.8-4.9c1-0.9,2.3-1.3,3.8-1.3
		c1.6,0,3,0.5,4,1.6c1,1.1,1.6,2.6,1.6,4.5c0,1.5-0.2,2.7-0.7,3.6c-0.5,0.9-1.1,1.6-2,2c-0.9,0.5-1.8,0.7-2.9,0.7
		c-1.7,0-3-0.5-4-1.6C24.8,164.5,24.3,163,24.3,160.9z M26.4,160.9c0,1.5,0.3,2.7,1,3.4c0.7,0.8,1.5,1.1,2.5,1.1
		c1,0,1.8-0.4,2.5-1.1c0.7-0.8,1-1.9,1-3.5c0-1.5-0.3-2.6-1-3.3c-0.7-0.8-1.5-1.1-2.5-1.1c-1,0-1.8,0.4-2.5,1.1
		C26.7,158.3,26.4,159.4,26.4,160.9z M37.6,166.9V155h1.8v1.7c0.9-1.3,2.2-2,3.8-2c0.7,0,1.4,0.1,2,0.4c0.6,0.3,1.1,0.6,1.4,1
		c0.3,0.4,0.5,0.9,0.6,1.5c0.1,0.4,0.1,1,0.1,2v7.3h-2v-7.3c0-0.8-0.1-1.4-0.2-1.8c-0.2-0.4-0.4-0.7-0.8-1c-0.4-0.2-0.9-0.4-1.4-0.4
		c-0.9,0-1.6,0.3-2.2,0.8c-0.6,0.5-0.9,1.6-0.9,3.1v6.5H37.6z M49.4,163.3l2-0.3c0.1,0.8,0.4,1.4,0.9,1.8c0.5,0.4,1.2,0.6,2.2,0.6
		s1.6-0.2,2.1-0.6c0.4-0.4,0.7-0.8,0.7-1.3c0-0.4-0.2-0.8-0.6-1.1c-0.3-0.2-1-0.4-2.1-0.7c-1.5-0.4-2.5-0.7-3.1-1
		c-0.6-0.3-1-0.7-1.3-1.1c-0.3-0.5-0.4-1-0.4-1.6c0-0.5,0.1-1,0.4-1.5c0.3-0.5,0.6-0.8,1-1.1c0.3-0.2,0.7-0.4,1.3-0.6
		c0.5-0.2,1.1-0.3,1.8-0.3c0.9,0,1.8,0.1,2.5,0.4c0.7,0.3,1.2,0.6,1.6,1.1c0.3,0.5,0.6,1.1,0.7,1.8l-2,0.3c-0.1-0.6-0.4-1.1-0.8-1.4
		s-1-0.5-1.8-0.5c-0.9,0-1.6,0.2-2,0.5c-0.4,0.3-0.6,0.7-0.6,1.1c0,0.3,0.1,0.5,0.3,0.7c0.2,0.2,0.4,0.4,0.8,0.5
		c0.2,0.1,0.8,0.2,1.8,0.5c1.4,0.4,2.4,0.7,3,0.9c0.6,0.2,1,0.6,1.3,1.1s0.5,1,0.5,1.7c0,0.7-0.2,1.3-0.6,1.9
		c-0.4,0.6-1,1.1-1.7,1.4c-0.7,0.3-1.6,0.5-2.5,0.5c-1.6,0-2.7-0.3-3.5-1C50.2,165.6,49.7,164.6,49.4,163.3z M60.8,160.9
		c0-2.2,0.6-3.8,1.8-4.9c1-0.9,2.3-1.3,3.8-1.3c1.6,0,3,0.5,4,1.6c1,1.1,1.6,2.6,1.6,4.5c0,1.5-0.2,2.7-0.7,3.6
		c-0.5,0.9-1.1,1.6-2,2c-0.9,0.5-1.8,0.7-2.9,0.7c-1.7,0-3-0.5-4-1.6C61.3,164.5,60.8,163,60.8,160.9z M62.9,160.9
		c0,1.5,0.3,2.7,1,3.4c0.7,0.8,1.5,1.1,2.5,1.1c1,0,1.8-0.4,2.5-1.1c0.7-0.8,1-1.9,1-3.5c0-1.5-0.3-2.6-1-3.3
		c-0.7-0.8-1.5-1.1-2.5-1.1c-1,0-1.8,0.4-2.5,1.1C63.2,158.3,62.9,159.4,62.9,160.9z M74.2,166.9V155H76v1.7c0.9-1.3,2.2-2,3.8-2
		c0.7,0,1.4,0.1,2,0.4c0.6,0.3,1.1,0.6,1.4,1c0.3,0.4,0.5,0.9,0.6,1.5c0.1,0.4,0.1,1,0.1,2v7.3h-2v-7.3c0-0.8-0.1-1.4-0.2-1.8
		c-0.2-0.4-0.4-0.7-0.8-1c-0.4-0.2-0.9-0.4-1.4-0.4c-0.9,0-1.6,0.3-2.2,0.8c-0.6,0.5-0.9,1.6-0.9,3.1v6.5H74.2z M94.6,165.4
		c-0.8,0.6-1.5,1.1-2.2,1.3c-0.7,0.3-1.4,0.4-2.2,0.4c-1.3,0-2.3-0.3-3-1c-0.7-0.6-1-1.5-1-2.5c0-0.6,0.1-1.1,0.4-1.6
		c0.3-0.5,0.6-0.9,1-1.2c0.4-0.3,0.9-0.5,1.5-0.7c0.4-0.1,1-0.2,1.8-0.3c1.6-0.2,2.8-0.4,3.6-0.7c0-0.3,0-0.5,0-0.5
		c0-0.8-0.2-1.4-0.6-1.8c-0.5-0.4-1.3-0.7-2.3-0.7c-0.9,0-1.7,0.2-2.1,0.5c-0.4,0.3-0.8,0.9-1,1.8l-2-0.3c0.2-0.8,0.5-1.5,0.9-2
		c0.4-0.5,1-0.9,1.8-1.2c0.8-0.3,1.7-0.4,2.7-0.4c1,0,1.8,0.1,2.5,0.4c0.6,0.2,1.1,0.5,1.4,0.9c0.3,0.4,0.5,0.8,0.6,1.4
		c0.1,0.3,0.1,1,0.1,1.9v2.7c0,1.9,0,3.1,0.1,3.6c0.1,0.5,0.3,1,0.5,1.4H95C94.7,166.5,94.6,166,94.6,165.4z M94.4,160.9
		c-0.7,0.3-1.8,0.6-3.3,0.8c-0.8,0.1-1.4,0.3-1.8,0.4c-0.3,0.1-0.6,0.4-0.8,0.7c-0.2,0.3-0.3,0.6-0.3,1c0,0.5,0.2,1,0.6,1.4
		c0.4,0.4,1,0.5,1.8,0.5c0.8,0,1.5-0.2,2.1-0.5c0.6-0.3,1.1-0.8,1.3-1.4c0.2-0.5,0.3-1.1,0.3-2V160.9z M99.4,166.9V155h1.8v1.7
		c0.9-1.3,2.2-2,3.8-2c0.7,0,1.4,0.1,2,0.4c0.6,0.3,1.1,0.6,1.4,1c0.3,0.4,0.5,0.9,0.6,1.5c0.1,0.4,0.1,1,0.1,2v7.3h-2v-7.3
		c0-0.8-0.1-1.4-0.2-1.8c-0.2-0.4-0.4-0.7-0.8-1c-0.4-0.2-0.9-0.4-1.4-0.4c-0.9,0-1.6,0.3-2.2,0.8c-0.6,0.5-0.9,1.6-0.9,3.1v6.5
		H99.4z M119.8,162.5l2,0.3c-0.2,1.4-0.8,2.4-1.7,3.2c-0.9,0.8-2,1.2-3.3,1.2c-1.6,0-2.9-0.5-3.9-1.6c-1-1.1-1.5-2.6-1.5-4.6
		c0-1.3,0.2-2.4,0.6-3.4c0.4-1,1.1-1.7,2-2.2c0.9-0.5,1.8-0.7,2.8-0.7c1.3,0,2.4,0.3,3.2,1c0.8,0.7,1.3,1.6,1.6,2.8l-2,0.3
		c-0.2-0.8-0.5-1.4-1-1.8c-0.5-0.4-1-0.6-1.7-0.6c-1,0-1.8,0.4-2.5,1.1c-0.6,0.7-1,1.9-1,3.5c0,1.6,0.3,2.8,0.9,3.5
		c0.6,0.7,1.4,1.1,2.4,1.1c0.8,0,1.5-0.2,2-0.7C119.3,164.3,119.6,163.5,119.8,162.5z M131.5,163.1l2.1,0.3
		c-0.3,1.2-0.9,2.2-1.8,2.8c-0.9,0.7-2,1-3.4,1c-1.8,0-3.1-0.5-4.2-1.6c-1-1.1-1.5-2.6-1.5-4.5c0-2,0.5-3.6,1.5-4.7
		c1-1.1,2.4-1.7,4-1.7c1.6,0,2.9,0.5,3.9,1.6c1,1.1,1.5,2.6,1.5,4.6c0,0.1,0,0.3,0,0.5h-8.9c0.1,1.3,0.4,2.3,1.1,3
		c0.7,0.7,1.5,1,2.5,1c0.7,0,1.4-0.2,1.9-0.6C130.7,164.5,131.2,163.9,131.5,163.1z M124.8,159.8h6.7c-0.1-1-0.3-1.8-0.8-2.3
		c-0.6-0.8-1.5-1.2-2.5-1.2c-0.9,0-1.7,0.3-2.3,0.9C125.2,157.9,124.9,158.8,124.8,159.8z"/>
	<path class="st3" d="M9.1,220.9v-16.5h11.1v2h-8.9v5.1H19v1.9h-7.7v7.5H9.1z M22.5,206.8v-2.3h2v2.3H22.5z M22.5,220.9V209h2v11.9
		H22.5z M27.6,220.9V209h1.8v1.7c0.9-1.3,2.2-2,3.8-2c0.7,0,1.4,0.1,2,0.4c0.6,0.3,1.1,0.6,1.4,1c0.3,0.4,0.5,0.9,0.6,1.5
		c0.1,0.4,0.1,1,0.1,2v7.3h-2v-7.3c0-0.8-0.1-1.4-0.2-1.8c-0.2-0.4-0.4-0.7-0.8-1c-0.4-0.2-0.9-0.4-1.4-0.4c-0.9,0-1.6,0.3-2.2,0.8
		c-0.6,0.5-0.9,1.6-0.9,3.1v6.5H27.6z M40.2,206.8v-2.3h2v2.3H40.2z M40.2,220.9V209h2v11.9H40.2z M49.6,219.1l0.3,1.8
		c-0.6,0.1-1.1,0.2-1.5,0.2c-0.7,0-1.3-0.1-1.7-0.3c-0.4-0.2-0.7-0.5-0.9-0.9c-0.2-0.4-0.2-1.2-0.2-2.4v-6.9h-1.5V209h1.5v-3l2-1.2
		v4.2h2v1.6h-2v7c0,0.6,0,0.9,0.1,1.1c0.1,0.2,0.2,0.3,0.3,0.4c0.2,0.1,0.4,0.1,0.7,0.1C48.9,219.2,49.2,219.1,49.6,219.1z
		 M59.7,217.1l2.1,0.3c-0.3,1.2-0.9,2.2-1.8,2.8c-0.9,0.7-2,1-3.4,1c-1.8,0-3.1-0.5-4.2-1.6c-1-1.1-1.5-2.6-1.5-4.5
		c0-2,0.5-3.6,1.5-4.7c1-1.1,2.4-1.7,4-1.7c1.6,0,2.9,0.5,3.9,1.6c1,1.1,1.5,2.6,1.5,4.6c0,0.1,0,0.3,0,0.5h-8.9
		c0.1,1.3,0.4,2.3,1.1,3c0.7,0.7,1.5,1,2.5,1c0.7,0,1.4-0.2,1.9-0.6C58.9,218.5,59.3,217.9,59.7,217.1z M53,213.8h6.7
		c-0.1-1-0.3-1.8-0.8-2.3c-0.6-0.8-1.5-1.2-2.5-1.2c-0.9,0-1.7,0.3-2.3,0.9C53.4,211.9,53.1,212.8,53,213.8z M74.8,220.9v-14.5h-5.4
		v-2h13v2H77v14.5H74.8z M84.2,220.9V209H86v1.8c0.5-0.8,0.9-1.4,1.3-1.7c0.4-0.3,0.8-0.4,1.3-0.4c0.7,0,1.4,0.2,2.1,0.7l-0.7,1.9
		c-0.5-0.3-1-0.4-1.5-0.4c-0.4,0-0.8,0.1-1.2,0.4c-0.3,0.3-0.6,0.6-0.7,1.1c-0.2,0.7-0.3,1.5-0.3,2.4v6.3H84.2z M99.5,219.4
		c-0.8,0.6-1.5,1.1-2.2,1.3c-0.7,0.3-1.4,0.4-2.2,0.4c-1.3,0-2.3-0.3-3-1c-0.7-0.6-1-1.5-1-2.5c0-0.6,0.1-1.1,0.4-1.6
		c0.3-0.5,0.6-0.9,1-1.2c0.4-0.3,0.9-0.5,1.5-0.7c0.4-0.1,1-0.2,1.8-0.3c1.6-0.2,2.8-0.4,3.6-0.7c0-0.3,0-0.5,0-0.5
		c0-0.8-0.2-1.4-0.6-1.8c-0.5-0.4-1.3-0.7-2.3-0.7c-0.9,0-1.7,0.2-2.1,0.5c-0.4,0.3-0.8,0.9-1,1.8l-2-0.3c0.2-0.8,0.5-1.5,0.9-2
		c0.4-0.5,1-0.9,1.8-1.2c0.8-0.3,1.7-0.4,2.7-0.4c1,0,1.8,0.1,2.5,0.4c0.6,0.2,1.1,0.5,1.4,0.9c0.3,0.4,0.5,0.8,0.6,1.4
		c0.1,0.3,0.1,1,0.1,1.9v2.7c0,1.9,0,3.1,0.1,3.6c0.1,0.5,0.3,1,0.5,1.4h-2.1C99.7,220.5,99.6,220,99.5,219.4z M99.4,214.9
		c-0.7,0.3-1.8,0.6-3.3,0.8c-0.8,0.1-1.4,0.3-1.8,0.4c-0.3,0.1-0.6,0.4-0.8,0.7c-0.2,0.3-0.3,0.6-0.3,1c0,0.5,0.2,1,0.6,1.4
		c0.4,0.4,1,0.5,1.8,0.5s1.5-0.2,2.1-0.5s1.1-0.8,1.3-1.4c0.2-0.5,0.3-1.1,0.3-2V214.9z M104.4,220.9V209h1.8v1.7
		c0.9-1.3,2.2-2,3.8-2c0.7,0,1.4,0.1,2,0.4c0.6,0.3,1.1,0.6,1.4,1c0.3,0.4,0.5,0.9,0.6,1.5c0.1,0.4,0.1,1,0.1,2v7.3h-2v-7.3
		c0-0.8-0.1-1.4-0.2-1.8c-0.2-0.4-0.4-0.7-0.8-1c-0.4-0.2-0.9-0.4-1.4-0.4c-0.9,0-1.6,0.3-2.2,0.8c-0.6,0.5-0.9,1.6-0.9,3.1v6.5
		H104.4z M116.1,217.3l2-0.3c0.1,0.8,0.4,1.4,0.9,1.8c0.5,0.4,1.2,0.6,2.2,0.6s1.6-0.2,2.1-0.6c0.4-0.4,0.7-0.8,0.7-1.3
		c0-0.4-0.2-0.8-0.6-1.1c-0.3-0.2-1-0.4-2.1-0.7c-1.5-0.4-2.5-0.7-3.1-1c-0.6-0.3-1-0.7-1.3-1.1c-0.3-0.5-0.4-1-0.4-1.6
		c0-0.5,0.1-1,0.4-1.5c0.3-0.5,0.6-0.8,1-1.1c0.3-0.2,0.7-0.4,1.3-0.6c0.5-0.2,1.1-0.3,1.8-0.3c0.9,0,1.8,0.1,2.5,0.4
		c0.7,0.3,1.2,0.6,1.6,1.1c0.3,0.5,0.6,1.1,0.7,1.8l-2,0.3c-0.1-0.6-0.4-1.1-0.8-1.4s-1-0.5-1.8-0.5c-0.9,0-1.6,0.2-2,0.5
		c-0.4,0.3-0.6,0.7-0.6,1.1c0,0.3,0.1,0.5,0.3,0.7c0.2,0.2,0.4,0.4,0.8,0.5c0.2,0.1,0.8,0.2,1.8,0.5c1.4,0.4,2.4,0.7,3,0.9
		c0.6,0.2,1,0.6,1.3,1.1s0.5,1,0.5,1.7c0,0.7-0.2,1.3-0.6,1.9c-0.4,0.6-1,1.1-1.7,1.4c-0.7,0.3-1.6,0.5-2.5,0.5
		c-1.6,0-2.7-0.3-3.5-1C116.9,219.6,116.4,218.6,116.1,217.3z M128.3,206.8v-2.3h2v2.3H128.3z M128.3,220.9V209h2v11.9H128.3z
		 M137.7,219.1l0.3,1.8c-0.6,0.1-1.1,0.2-1.5,0.2c-0.7,0-1.3-0.1-1.7-0.3c-0.4-0.2-0.7-0.5-0.9-0.9c-0.2-0.4-0.2-1.2-0.2-2.4v-6.9
		h-1.5V209h1.5v-3l2-1.2v4.2h2v1.6h-2v7c0,0.6,0,0.9,0.1,1.1c0.1,0.2,0.2,0.3,0.3,0.4c0.2,0.1,0.4,0.1,0.7,0.1
		C137.1,219.2,137.4,219.1,137.7,219.1z M139.6,206.8v-2.3h2v2.3H139.6z M139.6,220.9V209h2v11.9H139.6z M143.9,214.9
		c0-2.2,0.6-3.8,1.8-4.9c1-0.9,2.3-1.3,3.8-1.3c1.6,0,3,0.5,4,1.6c1,1.1,1.6,2.6,1.6,4.5c0,1.5-0.2,2.7-0.7,3.6
		c-0.5,0.9-1.1,1.6-2,2c-0.9,0.5-1.8,0.7-2.9,0.7c-1.7,0-3-0.5-4-1.6C144.4,218.5,143.9,217,143.9,214.9z M146,214.9
		c0,1.5,0.3,2.7,1,3.4c0.7,0.8,1.5,1.1,2.5,1.1c1,0,1.8-0.4,2.5-1.1c0.7-0.8,1-1.9,1-3.5c0-1.5-0.3-2.6-1-3.3
		c-0.7-0.8-1.5-1.1-2.5-1.1c-1,0-1.8,0.4-2.5,1.1C146.3,212.3,146,213.4,146,214.9z M157.2,220.9V209h1.8v1.7c0.9-1.3,2.2-2,3.8-2
		c0.7,0,1.4,0.1,2,0.4c0.6,0.3,1.1,0.6,1.4,1c0.3,0.4,0.5,0.9,0.6,1.5c0.1,0.4,0.1,1,0.1,2v7.3h-2v-7.3c0-0.8-0.1-1.4-0.2-1.8
		c-0.2-0.4-0.4-0.7-0.8-1c-0.4-0.2-0.9-0.4-1.4-0.4c-0.9,0-1.6,0.3-2.2,0.8c-0.6,0.5-0.9,1.6-0.9,3.1v6.5H157.2z M175.7,215.6
		l2.1-0.2c0.1,0.8,0.3,1.5,0.7,2c0.4,0.5,0.9,0.9,1.7,1.3c0.8,0.3,1.6,0.5,2.5,0.5c0.8,0,1.6-0.1,2.2-0.4c0.6-0.3,1.1-0.6,1.4-1
		c0.3-0.4,0.5-0.9,0.5-1.4c0-0.5-0.2-1-0.5-1.4c-0.3-0.4-0.8-0.7-1.5-1c-0.4-0.2-1.4-0.4-2.9-0.8c-1.5-0.4-2.6-0.7-3.2-1
		c-0.8-0.4-1.4-0.9-1.8-1.5c-0.4-0.6-0.6-1.3-0.6-2c0-0.8,0.2-1.6,0.7-2.3c0.5-0.7,1.2-1.3,2.1-1.7c0.9-0.4,1.9-0.6,3-0.6
		c1.2,0,2.3,0.2,3.2,0.6c0.9,0.4,1.7,1,2.2,1.7c0.5,0.8,0.8,1.6,0.8,2.6l-2.1,0.2c-0.1-1-0.5-1.8-1.2-2.4c-0.6-0.5-1.6-0.8-2.9-0.8
		c-1.3,0-2.3,0.2-2.9,0.7c-0.6,0.5-0.9,1.1-0.9,1.7c0,0.6,0.2,1.1,0.6,1.5c0.4,0.4,1.5,0.8,3.3,1.2c1.8,0.4,3,0.7,3.6,1
		c1,0.4,1.7,1,2.1,1.7c0.5,0.7,0.7,1.5,0.7,2.3c0,0.9-0.2,1.7-0.8,2.5c-0.5,0.8-1.2,1.4-2.2,1.8c-0.9,0.4-2,0.6-3.2,0.6
		c-1.5,0-2.7-0.2-3.8-0.6c-1-0.4-1.8-1.1-2.4-2C176,217.7,175.7,216.7,175.7,215.6z M191.3,225.5V209h1.8v1.5
		c0.4-0.6,0.9-1.1,1.5-1.4c0.6-0.3,1.2-0.5,2-0.5c1,0,1.9,0.3,2.7,0.8c0.8,0.5,1.4,1.3,1.8,2.2c0.4,0.9,0.6,2,0.6,3.1
		c0,1.2-0.2,2.3-0.7,3.3c-0.4,1-1.1,1.7-1.9,2.2c-0.8,0.5-1.7,0.8-2.6,0.8c-0.7,0-1.3-0.1-1.8-0.4c-0.5-0.3-1-0.6-1.3-1.1v5.8H191.3
		z M193.1,215c0,1.5,0.3,2.7,0.9,3.4c0.6,0.7,1.4,1.1,2.3,1.1c0.9,0,1.7-0.4,2.3-1.1c0.6-0.8,1-1.9,1-3.5c0-1.5-0.3-2.7-0.9-3.4
		c-0.6-0.8-1.4-1.1-2.2-1.1s-1.6,0.4-2.3,1.2C193.4,212.3,193.1,213.5,193.1,215z M212,217.1l2.1,0.3c-0.3,1.2-0.9,2.2-1.8,2.8
		c-0.9,0.7-2,1-3.4,1c-1.8,0-3.1-0.5-4.2-1.6c-1-1.1-1.5-2.6-1.5-4.5c0-2,0.5-3.6,1.5-4.7c1-1.1,2.4-1.7,4-1.7
		c1.6,0,2.9,0.5,3.9,1.6c1,1.1,1.5,2.6,1.5,4.6c0,0.1,0,0.3,0,0.5h-8.9c0.1,1.3,0.4,2.3,1.1,3c0.7,0.7,1.5,1,2.5,1
		c0.7,0,1.4-0.2,1.9-0.6C211.3,218.5,211.7,217.9,212,217.1z M205.4,213.8h6.7c-0.1-1-0.3-1.8-0.8-2.3c-0.6-0.8-1.5-1.2-2.5-1.2
		c-0.9,0-1.7,0.3-2.3,0.9C205.8,211.9,205.4,212.8,205.4,213.8z M224.6,217.1l2.1,0.3c-0.3,1.2-0.9,2.2-1.8,2.8c-0.9,0.7-2,1-3.4,1
		c-1.8,0-3.1-0.5-4.2-1.6c-1-1.1-1.5-2.6-1.5-4.5c0-2,0.5-3.6,1.5-4.7c1-1.1,2.4-1.7,4-1.7c1.6,0,2.9,0.5,3.9,1.6
		c1,1.1,1.5,2.6,1.5,4.6c0,0.1,0,0.3,0,0.5h-8.9c0.1,1.3,0.4,2.3,1.1,3c0.7,0.7,1.5,1,2.5,1c0.7,0,1.4-0.2,1.9-0.6
		C223.9,218.5,224.3,217.9,224.6,217.1z M218,213.8h6.7c-0.1-1-0.3-1.8-0.8-2.3c-0.6-0.8-1.5-1.2-2.5-1.2c-0.9,0-1.7,0.3-2.3,0.9
		C218.4,211.9,218.1,212.8,218,213.8z M236.8,220.9v-1.5c-0.8,1.2-1.9,1.8-3.3,1.8c-0.9,0-1.8-0.3-2.6-0.8c-0.8-0.5-1.4-1.3-1.9-2.2
		c-0.4-0.9-0.7-2-0.7-3.3c0-1.2,0.2-2.3,0.6-3.2c0.4-1,1-1.7,1.8-2.2c0.8-0.5,1.7-0.8,2.7-0.8c0.7,0,1.4,0.2,1.9,0.5
		c0.6,0.3,1,0.7,1.4,1.2v-5.9h2v16.5H236.8z M230.4,214.9c0,1.5,0.3,2.7,1,3.4c0.6,0.8,1.4,1.1,2.3,1.1c0.9,0,1.6-0.4,2.3-1.1
		c0.6-0.7,0.9-1.8,0.9-3.3c0-1.6-0.3-2.8-0.9-3.6c-0.6-0.8-1.4-1.1-2.3-1.1c-0.9,0-1.6,0.4-2.3,1.1
		C230.7,212.2,230.4,213.4,230.4,214.9z"/>
	<path class="st3" d="M8.9,274.9v-16.5h3.3l3.9,11.7c0.4,1.1,0.6,1.9,0.8,2.4c0.2-0.6,0.5-1.5,0.9-2.6l3.9-11.5h2.9v16.5h-2.1v-13.8
		l-4.8,13.8h-2l-4.8-14v14H8.9z M35.3,273.4c-0.8,0.6-1.5,1.1-2.2,1.3c-0.7,0.3-1.4,0.4-2.2,0.4c-1.3,0-2.3-0.3-3-1
		c-0.7-0.6-1-1.5-1-2.5c0-0.6,0.1-1.1,0.4-1.6c0.3-0.5,0.6-0.9,1-1.2c0.4-0.3,0.9-0.5,1.5-0.7c0.4-0.1,1-0.2,1.8-0.3
		c1.6-0.2,2.8-0.4,3.6-0.7c0-0.3,0-0.5,0-0.5c0-0.8-0.2-1.4-0.6-1.8c-0.5-0.4-1.3-0.7-2.3-0.7c-0.9,0-1.7,0.2-2.1,0.5
		c-0.4,0.3-0.8,0.9-1,1.8l-2-0.3c0.2-0.8,0.5-1.5,0.9-2c0.4-0.5,1-0.9,1.8-1.2c0.8-0.3,1.7-0.4,2.7-0.4c1,0,1.8,0.1,2.5,0.4
		c0.6,0.2,1.1,0.5,1.4,0.9c0.3,0.4,0.5,0.8,0.6,1.4c0.1,0.3,0.1,1,0.1,1.9v2.7c0,1.9,0,3.1,0.1,3.6c0.1,0.5,0.3,1,0.5,1.4h-2.1
		C35.5,274.5,35.4,274,35.3,273.4z M35.2,268.9c-0.7,0.3-1.8,0.6-3.3,0.8c-0.8,0.1-1.4,0.3-1.8,0.4c-0.3,0.1-0.6,0.4-0.8,0.7
		c-0.2,0.3-0.3,0.6-0.3,1c0,0.5,0.2,1,0.6,1.4c0.4,0.4,1,0.5,1.8,0.5s1.5-0.2,2.1-0.5s1.1-0.8,1.3-1.4c0.2-0.5,0.3-1.1,0.3-2V268.9z
		 M38.8,274.9l4.4-6.2l-4-5.7h2.5l1.8,2.8c0.3,0.5,0.6,1,0.8,1.3c0.3-0.5,0.6-0.9,0.9-1.3l2-2.8h2.4l-4.1,5.6l4.4,6.3h-2.5l-2.4-3.7
		l-0.7-1l-3.1,4.7H38.8z M61.6,279.7c-1.1-1.4-2.1-3.1-2.8-4.9c-0.8-1.9-1.2-3.9-1.2-5.9c0-1.8,0.3-3.5,0.9-5.1
		c0.7-1.9,1.7-3.8,3.1-5.7h1.5c-0.9,1.6-1.5,2.7-1.8,3.3c-0.5,1-0.8,2.1-1.1,3.2c-0.3,1.4-0.5,2.8-0.5,4.2c0,3.6,1.1,7.2,3.4,10.8
		H61.6z M65.3,260.8v-2.4h2v2.4H65.3z M62.7,279.5l0.4-1.7c0.4,0.1,0.7,0.2,1,0.2c0.4,0,0.7-0.1,0.9-0.4c0.2-0.3,0.3-1,0.3-2V263h2
		v12.6c0,1.5-0.2,2.5-0.6,3.1c-0.5,0.8-1.3,1.1-2.4,1.1C63.8,279.7,63.3,279.7,62.7,279.5z M80.6,266.3L69.7,271v-2l8.6-3.6
		l-8.6-3.5v-2l10.9,4.6V266.3z M80.6,273.7H69.7v-1.9h10.9V273.7z M88.7,274.9V271h-7.1v-1.9l7.5-10.7h1.6v10.7H93v1.9h-2.2v3.9
		H88.7z M88.7,269.1v-7.4l-5.2,7.4H88.7z M96.7,279.7h-1.5c2.2-3.6,3.4-7.2,3.4-10.8c0-1.4-0.2-2.8-0.5-4.2
		c-0.3-1.1-0.6-2.2-1.1-3.2c-0.3-0.7-0.9-1.8-1.8-3.4h1.5c1.4,1.9,2.4,3.8,3.1,5.7c0.6,1.6,0.9,3.3,0.9,5.1c0,2-0.4,4-1.2,5.9
		C98.8,276.7,97.8,278.3,96.7,279.7z M102.2,270v-2h6.2v2H102.2z M110.5,274.9V263h1.8v1.7c0.9-1.3,2.2-2,3.8-2c0.7,0,1.4,0.1,2,0.4
		c0.6,0.3,1.1,0.6,1.4,1c0.3,0.4,0.5,0.9,0.6,1.5c0.1,0.4,0.1,1,0.1,2v7.3h-2v-7.3c0-0.8-0.1-1.4-0.2-1.8c-0.2-0.4-0.4-0.7-0.8-1
		c-0.4-0.2-0.9-0.4-1.4-0.4c-0.9,0-1.6,0.3-2.2,0.8c-0.6,0.5-0.9,1.6-0.9,3.1v6.5H110.5z M122.3,268.9c0-2.2,0.6-3.8,1.8-4.9
		c1-0.9,2.3-1.3,3.8-1.3c1.6,0,3,0.5,4,1.6c1,1.1,1.6,2.6,1.6,4.5c0,1.5-0.2,2.7-0.7,3.6c-0.5,0.9-1.1,1.6-2,2
		c-0.9,0.5-1.8,0.7-2.9,0.7c-1.7,0-3-0.5-4-1.6C122.8,272.5,122.3,271,122.3,268.9z M124.4,268.9c0,1.5,0.3,2.7,1,3.4
		c0.7,0.8,1.5,1.1,2.5,1.1c1,0,1.8-0.4,2.5-1.1c0.7-0.8,1-1.9,1-3.5c0-1.5-0.3-2.6-1-3.3c-0.7-0.8-1.5-1.1-2.5-1.1
		c-1,0-1.8,0.4-2.5,1.1C124.7,266.3,124.4,267.4,124.4,268.9z M140.1,273.1l0.3,1.8c-0.6,0.1-1.1,0.2-1.5,0.2
		c-0.7,0-1.3-0.1-1.7-0.3c-0.4-0.2-0.7-0.5-0.9-0.9c-0.2-0.4-0.2-1.2-0.2-2.4v-6.9h-1.5V263h1.5v-3l2-1.2v4.2h2v1.6h-2v7
		c0,0.6,0,0.9,0.1,1.1c0.1,0.2,0.2,0.3,0.3,0.4c0.2,0.1,0.4,0.1,0.7,0.1C139.4,273.2,139.7,273.1,140.1,273.1z M150.1,271.1l2.1,0.3
		c-0.3,1.2-0.9,2.2-1.8,2.8c-0.9,0.7-2,1-3.4,1c-1.8,0-3.1-0.5-4.2-1.6c-1-1.1-1.5-2.6-1.5-4.5c0-2,0.5-3.6,1.5-4.7
		c1-1.1,2.4-1.7,4-1.7c1.6,0,2.9,0.5,3.9,1.6c1,1.1,1.5,2.6,1.5,4.6c0,0.1,0,0.3,0,0.5h-8.9c0.1,1.3,0.4,2.3,1.1,3
		c0.7,0.7,1.5,1,2.5,1c0.7,0,1.4-0.2,1.9-0.6C149.4,272.5,149.8,271.9,150.1,271.1z M143.5,267.8h6.7c-0.1-1-0.3-1.8-0.8-2.3
		c-0.6-0.8-1.5-1.2-2.5-1.2c-0.9,0-1.7,0.3-2.3,0.9C143.9,265.9,143.6,266.8,143.5,267.8z M168.6,270.5l2,0.3
		c-0.2,1.4-0.8,2.4-1.7,3.2c-0.9,0.8-2,1.2-3.3,1.2c-1.6,0-2.9-0.5-3.9-1.6c-1-1.1-1.5-2.6-1.5-4.6c0-1.3,0.2-2.4,0.6-3.4
		c0.4-1,1.1-1.7,2-2.2c0.9-0.5,1.8-0.7,2.8-0.7c1.3,0,2.4,0.3,3.2,1c0.8,0.7,1.3,1.6,1.6,2.8l-2,0.3c-0.2-0.8-0.5-1.4-1-1.8
		c-0.5-0.4-1-0.6-1.7-0.6c-1,0-1.8,0.4-2.5,1.1c-0.6,0.7-1,1.9-1,3.5c0,1.6,0.3,2.8,0.9,3.5c0.6,0.7,1.4,1.1,2.4,1.1
		c0.8,0,1.5-0.2,2-0.7C168.2,272.3,168.5,271.5,168.6,270.5z M172.2,274.9v-16.5h2v5.9c0.9-1.1,2.1-1.6,3.6-1.6
		c0.9,0,1.7,0.2,2.3,0.5c0.7,0.3,1.1,0.8,1.4,1.4c0.3,0.6,0.4,1.5,0.4,2.7v7.6h-2v-7.6c0-1-0.2-1.7-0.7-2.2
		c-0.4-0.5-1.1-0.7-1.9-0.7c-0.6,0-1.2,0.2-1.7,0.5c-0.5,0.3-0.9,0.7-1.1,1.3c-0.2,0.5-0.3,1.3-0.3,2.2v6.5H172.2z M184,268.9
		c0-2.2,0.6-3.8,1.8-4.9c1-0.9,2.3-1.3,3.8-1.3c1.6,0,3,0.5,4,1.6c1,1.1,1.6,2.6,1.6,4.5c0,1.5-0.2,2.7-0.7,3.6
		c-0.5,0.9-1.1,1.6-2,2c-0.9,0.5-1.8,0.7-2.9,0.7c-1.7,0-3-0.5-4-1.6C184.6,272.5,184,271,184,268.9z M186.1,268.9
		c0,1.5,0.3,2.7,1,3.4c0.7,0.8,1.5,1.1,2.5,1.1c1,0,1.8-0.4,2.5-1.1c0.7-0.8,1-1.9,1-3.5c0-1.5-0.3-2.6-1-3.3
		c-0.7-0.8-1.5-1.1-2.5-1.1c-1,0-1.8,0.4-2.5,1.1C186.5,266.3,186.1,267.4,186.1,268.9z M197.4,274.9V263h1.8v1.8
		c0.5-0.8,0.9-1.4,1.3-1.7c0.4-0.3,0.8-0.4,1.3-0.4c0.7,0,1.4,0.2,2.1,0.7l-0.7,1.9c-0.5-0.3-1-0.4-1.5-0.4c-0.4,0-0.8,0.1-1.2,0.4
		c-0.3,0.3-0.6,0.6-0.7,1.1c-0.2,0.7-0.3,1.5-0.3,2.4v6.3H197.4z M212.7,274.9v-1.5c-0.8,1.2-1.9,1.8-3.3,1.8
		c-0.9,0-1.8-0.3-2.6-0.8c-0.8-0.5-1.4-1.3-1.9-2.2c-0.4-0.9-0.7-2-0.7-3.3c0-1.2,0.2-2.3,0.6-3.2c0.4-1,1-1.7,1.8-2.2
		c0.8-0.5,1.7-0.8,2.7-0.8c0.7,0,1.4,0.2,1.9,0.5c0.6,0.3,1,0.7,1.4,1.2v-5.9h2v16.5H212.7z M206.3,268.9c0,1.5,0.3,2.7,1,3.4
		c0.6,0.8,1.4,1.1,2.3,1.1c0.9,0,1.6-0.4,2.3-1.1c0.6-0.7,0.9-1.8,0.9-3.3c0-1.6-0.3-2.8-0.9-3.6c-0.6-0.8-1.4-1.1-2.3-1.1
		c-0.9,0-1.6,0.4-2.3,1.1C206.6,266.2,206.3,267.4,206.3,268.9z"/>
	<path class="st3" d="M8.9,328.9v-16.5h3.3l3.9,11.7c0.4,1.1,0.6,1.9,0.8,2.4c0.2-0.6,0.5-1.5,0.9-2.6l3.9-11.5h2.9v16.5h-2.1v-13.8
		l-4.8,13.8h-2l-4.8-14v14H8.9z M35.3,327.4c-0.8,0.6-1.5,1.1-2.2,1.3c-0.7,0.3-1.4,0.4-2.2,0.4c-1.3,0-2.3-0.3-3-1
		c-0.7-0.6-1-1.5-1-2.5c0-0.6,0.1-1.1,0.4-1.6c0.3-0.5,0.6-0.9,1-1.2c0.4-0.3,0.9-0.5,1.5-0.7c0.4-0.1,1-0.2,1.8-0.3
		c1.6-0.2,2.8-0.4,3.6-0.7c0-0.3,0-0.5,0-0.5c0-0.8-0.2-1.4-0.6-1.8c-0.5-0.4-1.3-0.7-2.3-0.7c-0.9,0-1.7,0.2-2.1,0.5
		c-0.4,0.3-0.8,0.9-1,1.8l-2-0.3c0.2-0.8,0.5-1.5,0.9-2c0.4-0.5,1-0.9,1.8-1.2c0.8-0.3,1.7-0.4,2.7-0.4c1,0,1.8,0.1,2.5,0.4
		c0.6,0.2,1.1,0.5,1.4,0.9c0.3,0.4,0.5,0.8,0.6,1.4c0.1,0.3,0.1,1,0.1,1.9v2.7c0,1.9,0,3.1,0.1,3.6c0.1,0.5,0.3,1,0.5,1.4h-2.1
		C35.5,328.5,35.4,328,35.3,327.4z M35.2,322.9c-0.7,0.3-1.8,0.6-3.3,0.8c-0.8,0.1-1.4,0.3-1.8,0.4c-0.3,0.1-0.6,0.4-0.8,0.7
		c-0.2,0.3-0.3,0.6-0.3,1c0,0.5,0.2,1,0.6,1.4c0.4,0.4,1,0.5,1.8,0.5s1.5-0.2,2.1-0.5s1.1-0.8,1.3-1.4c0.2-0.5,0.3-1.1,0.3-2V322.9z
		 M38.8,328.9l4.4-6.2l-4-5.7h2.5l1.8,2.8c0.3,0.5,0.6,1,0.8,1.3c0.3-0.5,0.6-0.9,0.9-1.3l2-2.8h2.4l-4.1,5.6l4.4,6.3h-2.5l-2.4-3.7
		l-0.7-1l-3.1,4.7H38.8z M61.6,333.7c-1.1-1.4-2.1-3.1-2.8-4.9c-0.8-1.9-1.2-3.9-1.2-5.9c0-1.8,0.3-3.5,0.9-5.1
		c0.7-1.9,1.7-3.8,3.1-5.7h1.5c-0.9,1.6-1.5,2.7-1.8,3.3c-0.5,1-0.8,2.1-1.1,3.2c-0.3,1.4-0.5,2.8-0.5,4.2c0,3.6,1.1,7.2,3.4,10.8
		H61.6z M65.3,314.8v-2.4h2v2.4H65.3z M62.7,333.5l0.4-1.7c0.4,0.1,0.7,0.2,1,0.2c0.4,0,0.7-0.1,0.9-0.4s0.3-1,0.3-2V317h2v12.6
		c0,1.5-0.2,2.5-0.6,3.1c-0.5,0.8-1.3,1.1-2.4,1.1C63.8,333.7,63.3,333.7,62.7,333.5z M81,319.2H70.1v-1.9H81V319.2z M81,324.2H70.1
		v-1.9H81V324.2z M90.6,328.9h-2V316c-0.5,0.5-1.1,0.9-1.9,1.4c-0.8,0.5-1.5,0.8-2.1,1v-2c1.1-0.5,2.1-1.2,3-1.9
		c0.8-0.8,1.4-1.5,1.8-2.2h1.3V328.9z M97.5,333.7h-1.5c2.2-3.6,3.4-7.2,3.4-10.8c0-1.4-0.2-2.8-0.5-4.2c-0.3-1.1-0.6-2.2-1.1-3.2
		c-0.3-0.7-0.9-1.8-1.8-3.4h1.5c1.4,1.9,2.4,3.8,3.1,5.7c0.6,1.6,0.9,3.3,0.9,5.1c0,2-0.4,4-1.2,5.9
		C99.6,330.7,98.6,332.3,97.5,333.7z M102.9,324v-2h6.2v2H102.9z M111.3,328.9V317h1.8v1.7c0.9-1.3,2.2-2,3.8-2c0.7,0,1.4,0.1,2,0.4
		c0.6,0.3,1.1,0.6,1.4,1c0.3,0.4,0.5,0.9,0.6,1.5c0.1,0.4,0.1,1,0.1,2v7.3h-2v-7.2c0-0.8-0.1-1.4-0.2-1.8c-0.2-0.4-0.4-0.7-0.8-1
		c-0.4-0.2-0.9-0.4-1.4-0.4c-0.9,0-1.6,0.3-2.2,0.8c-0.6,0.5-0.9,1.6-0.9,3.1v6.5H111.3z M123.1,322.9c0-2.2,0.6-3.8,1.8-4.9
		c1-0.9,2.3-1.3,3.8-1.3c1.6,0,3,0.5,4,1.6c1,1.1,1.6,2.6,1.6,4.5c0,1.5-0.2,2.7-0.7,3.6c-0.5,0.9-1.1,1.6-2,2
		c-0.9,0.5-1.8,0.7-2.9,0.7c-1.7,0-3-0.5-4-1.6C123.6,326.5,123.1,325,123.1,322.9z M125.2,322.9c0,1.5,0.3,2.7,1,3.4
		c0.7,0.8,1.5,1.1,2.5,1.1c1,0,1.8-0.4,2.5-1.1c0.7-0.8,1-1.9,1-3.5c0-1.5-0.3-2.6-1-3.3c-0.7-0.8-1.5-1.1-2.5-1.1
		c-1,0-1.8,0.4-2.5,1.1C125.5,320.3,125.2,321.4,125.2,322.9z M140.9,327.1l0.3,1.8c-0.6,0.1-1.1,0.2-1.5,0.2
		c-0.7,0-1.3-0.1-1.7-0.3c-0.4-0.2-0.7-0.5-0.9-0.9c-0.2-0.4-0.2-1.2-0.2-2.4v-6.9h-1.5V317h1.5v-3l2-1.2v4.2h2v1.6h-2v7
		c0,0.6,0,0.9,0.1,1.1s0.2,0.3,0.3,0.4c0.2,0.1,0.4,0.1,0.7,0.1C140.2,327.2,140.5,327.1,140.9,327.1z M150.9,325.1l2.1,0.3
		c-0.3,1.2-0.9,2.2-1.8,2.8c-0.9,0.7-2,1-3.4,1c-1.8,0-3.1-0.5-4.2-1.6c-1-1.1-1.5-2.6-1.5-4.5c0-2,0.5-3.6,1.5-4.7
		c1-1.1,2.4-1.7,4-1.7c1.6,0,2.9,0.5,3.9,1.6c1,1.1,1.5,2.6,1.5,4.6c0,0.1,0,0.3,0,0.5h-8.9c0.1,1.3,0.4,2.3,1.1,3
		c0.7,0.7,1.5,1,2.5,1c0.7,0,1.4-0.2,1.9-0.6C150.2,326.5,150.6,325.9,150.9,325.1z M144.3,321.8h6.7c-0.1-1-0.3-1.8-0.8-2.3
		c-0.6-0.8-1.5-1.2-2.5-1.2c-0.9,0-1.7,0.3-2.3,0.9C144.7,319.9,144.4,320.8,144.3,321.8z M169.4,324.5l2,0.3
		c-0.2,1.4-0.8,2.4-1.7,3.2c-0.9,0.8-2,1.2-3.3,1.2c-1.6,0-2.9-0.5-3.9-1.6c-1-1.1-1.5-2.6-1.5-4.6c0-1.3,0.2-2.4,0.6-3.4
		c0.4-1,1.1-1.7,2-2.2c0.9-0.5,1.8-0.7,2.8-0.7c1.3,0,2.4,0.3,3.2,1c0.8,0.7,1.3,1.6,1.6,2.8l-2,0.3c-0.2-0.8-0.5-1.4-1-1.8
		c-0.5-0.4-1-0.6-1.7-0.6c-1,0-1.8,0.4-2.5,1.1c-0.6,0.7-1,1.9-1,3.5c0,1.6,0.3,2.8,0.9,3.5c0.6,0.7,1.4,1.1,2.4,1.1
		c0.8,0,1.5-0.2,2-0.7S169.3,325.5,169.4,324.5z M173,328.9v-16.5h2v5.9c0.9-1.1,2.1-1.6,3.6-1.6c0.9,0,1.7,0.2,2.3,0.5
		c0.7,0.3,1.1,0.8,1.4,1.4c0.3,0.6,0.4,1.5,0.4,2.7v7.6h-2v-7.6c0-1-0.2-1.7-0.7-2.2c-0.4-0.5-1.1-0.7-1.9-0.7
		c-0.6,0-1.2,0.2-1.7,0.5c-0.5,0.3-0.9,0.7-1.1,1.3c-0.2,0.5-0.3,1.3-0.3,2.2v6.5H173z M184.8,322.9c0-2.2,0.6-3.8,1.8-4.9
		c1-0.9,2.3-1.3,3.8-1.3c1.6,0,3,0.5,4,1.6c1,1.1,1.6,2.6,1.6,4.5c0,1.5-0.2,2.7-0.7,3.6c-0.5,0.9-1.1,1.6-2,2
		c-0.9,0.5-1.8,0.7-2.9,0.7c-1.7,0-3-0.5-4-1.6C185.4,326.5,184.8,325,184.8,322.9z M186.9,322.9c0,1.5,0.3,2.7,1,3.4
		s1.5,1.1,2.5,1.1c1,0,1.8-0.4,2.5-1.1c0.7-0.8,1-1.9,1-3.5c0-1.5-0.3-2.6-1-3.3c-0.7-0.8-1.5-1.1-2.5-1.1c-1,0-1.8,0.4-2.5,1.1
		C187.3,320.3,186.9,321.4,186.9,322.9z M198.2,328.9V317h1.8v1.8c0.5-0.8,0.9-1.4,1.3-1.7c0.4-0.3,0.8-0.4,1.3-0.4
		c0.7,0,1.4,0.2,2.1,0.7l-0.7,1.9c-0.5-0.3-1-0.4-1.5-0.4c-0.4,0-0.8,0.1-1.2,0.4c-0.3,0.3-0.6,0.6-0.7,1.1
		c-0.2,0.7-0.3,1.5-0.3,2.4v6.3H198.2z M213.5,328.9v-1.5c-0.8,1.2-1.9,1.8-3.3,1.8c-0.9,0-1.8-0.3-2.6-0.8
		c-0.8-0.5-1.4-1.3-1.9-2.2c-0.4-0.9-0.7-2-0.7-3.3c0-1.2,0.2-2.3,0.6-3.2c0.4-1,1-1.7,1.8-2.2c0.8-0.5,1.7-0.8,2.7-0.8
		c0.7,0,1.4,0.2,1.9,0.5c0.6,0.3,1,0.7,1.4,1.2v-5.9h2v16.5H213.5z M207.1,322.9c0,1.5,0.3,2.7,1,3.4c0.6,0.8,1.4,1.1,2.3,1.1
		c0.9,0,1.6-0.4,2.3-1.1c0.6-0.7,0.9-1.8,0.9-3.3c0-1.6-0.3-2.8-0.9-3.6c-0.6-0.8-1.4-1.1-2.3-1.1c-0.9,0-1.6,0.4-2.3,1.1
		C207.4,320.2,207.1,321.4,207.1,322.9z"/>
</g>
</svg>
