<?xml version="1.0" encoding="utf-8"?>
<!-- Generator: Adobe Illustrator 19.1.0, SVG Export Plug-In . SVG Version: 6.00 Build 0)  -->
<svg version="1.1" id="Layer_1" xmlns="http://www.w3.org/2000/svg" xmlns:xlink="http://www.w3.org/1999/xlink" x="0px" y="0px"
	 viewBox="0 0 148.8 108.8" style="enable-background:new 0 0 148.8 108.8;" xml:space="preserve">
<style type="text/css">
	.st0{fill:none;stroke:#000000;stroke-width:2.4799;stroke-miterlimit:10;}
	.st1{font-family:'OpusSpecial';}
	.st2{font-size:19.8364px;}
	.st3{font-family:'TimesNewRomanPSMT';}
	.st4{font-size:11.9328px;}
	.st5{font-family:'Opus';}
	.st6{font-size:19.9914px;}
	.st7{fill:none;stroke:#000000;stroke-width:0.465;stroke-miterlimit:10;}
</style>
<g>
	<line class="st0" x1="62.7" y1="98.5" x2="62.7" y2="16.1"/>
	<text transform="matrix(1.0003 0 0 1 61.4868 16.0762)" class="st1 st2"></text>
	<text transform="matrix(1.0003 0 0 1 60.7284 95.4907)" class="st1 st2"></text>
	<text transform="matrix(1.0003 0 0 1 40.8765 29.873)" class="st3 st4">X1</text>
	<text transform="matrix(1.0003 0 0 1 8.1587 76.9961)" class="st3 st4">NOT(X1)</text>
	<text transform="matrix(1.0003 0 0 1 88.4604 21.0449)" class="st5 st6"></text>
	<text transform="matrix(1.0003 0 0 1 88.4604 30.9668)" class="st5 st6"></text>
	<text transform="matrix(1.0003 0 0 1 88.4604 68.1641)" class="st5 st6"></text>
	<text transform="matrix(1.0003 0 0 1 88.4604 78.0762)" class="st5 st6"></text>
	<path class="st7" d="M133,35.9H66.4 M133,31H66.4 M133,26H66.4 M133,21H66.4 M133,16.1H66.4"/>
	<text transform="matrix(1.0003 0 0 1 70.1665 30.9512)" class="st5 st2"></text>
	<line class="st7" x1="66.8" y1="16.1" x2="66.8" y2="16.1"/>
	<line class="st7" x1="66.8" y1="16.1" x2="66.8" y2="16.1"/>
	<line class="st7" x1="66.8" y1="16.1" x2="66.8" y2="16.1"/>
	<path class="st7" d="M133,83H66.4 M133,78.1H66.4 M133,73.1H66.4 M133,68.2H66.4 M133,63.2H66.4"/>
	<text transform="matrix(1.0003 0 0 1 70.1665 78.0605)" class="st5 st2"></text>
	<line class="st7" x1="66.8" y1="16.1" x2="66.8" y2="16.1"/>
	<line class="st7" x1="66.8" y1="16.1" x2="66.8" y2="16.1"/>
	<line class="st7" x1="66.8" y1="16.1" x2="66.8" y2="16.1"/>
	<line class="st7" x1="66.8" y1="16.1" x2="66.8" y2="16.1"/>
	<line class="st7" x1="66.8" y1="16.1" x2="66.8" y2="16.1"/>
	<line class="st7" x1="66.8" y1="16.1" x2="66.8" y2="16.1"/>
	<line class="st7" x1="66.8" y1="16.1" x2="66.8" y2="16.1"/>
	<line class="st7" x1="66.8" y1="16.1" x2="66.8" y2="16.1"/>
	<line class="st7" x1="66.8" y1="16.1" x2="66.8" y2="16.1"/>
	<line class="st7" x1="66.8" y1="16.1" x2="66.8" y2="16.1"/>
	<line class="st7" x1="66.8" y1="16.1" x2="66.8" y2="16.1"/>
	<line class="st7" x1="66.8" y1="16.1" x2="66.8" y2="16.1"/>
	<line class="st7" x1="66.8" y1="16.1" x2="66.8" y2="16.1"/>
	<line class="st7" x1="66.8" y1="16.1" x2="66.8" y2="16.1"/>
	<line class="st7" x1="66.8" y1="16.1" x2="66.8" y2="16.1"/>
	<line class="st7" x1="66.8" y1="16.1" x2="66.8" y2="16.1"/>
	<line class="st7" x1="66.8" y1="16.1" x2="66.8" y2="16.1"/>
	<line class="st7" x1="66.8" y1="16.1" x2="66.8" y2="16.1"/>
	<line class="st7" x1="66.8" y1="16.1" x2="66.8" y2="16.1"/>
	<line class="st7" x1="66.8" y1="16.1" x2="66.8" y2="16.1"/>
	<line class="st7" x1="66.8" y1="16.1" x2="66.8" y2="16.1"/>
	<line class="st7" x1="66.8" y1="16.1" x2="66.8" y2="16.1"/>
	<line class="st7" x1="66.8" y1="16.1" x2="66.8" y2="16.1"/>
	<line class="st7" x1="110.8" y1="21" x2="110.8" y2="37.6"/>
	<text transform="matrix(1.0003 0 0 1 103.9556 38.3965)" class="st5 st2"></text>
	<line class="st7" x1="110.8" y1="68.2" x2="110.8" y2="84.7"/>
	<text transform="matrix(1.0003 0 0 1 103.9556 85.5059)" class="st5 st2"></text>
	<line class="st7" x1="66.8" y1="16.1" x2="66.8" y2="16.1"/>
	<text transform="matrix(1.0003 0 0 1 98.0728 85.5059)" class="st5 st2"></text>
</g>
</svg>
